<svg xmlns="http://www.w3.org/2000/svg" width="25.999" height="26.016" viewBox="0 0 25.999 26.016">
  <defs>
    <style>
      .cls-1 {
        fill: #bcc2d6;
        stroke: #bcc2d6;
        stroke-linejoin: round;
      }
    </style>
  </defs>
  <path id="filter" class="cls-1" d="M24.522,0H1.477A.976.976,0,0,0,.5.977,9.538,9.538,0,0,0,3.7,8.1l4.277,3.8a3.48,3.48,0,0,1,1.167,2.6v9.523a.977.977,0,0,0,1.518.812l5.762-3.841a.977.977,0,0,0,.435-.813V14.5a3.48,3.48,0,0,1,1.167-2.6L22.3,8.1A9.538,9.538,0,0,0,25.5.977.976.976,0,0,0,24.522,0ZM21,6.639l-4.277,3.8A5.435,5.435,0,0,0,14.9,14.5v5.16L11.1,22.2V14.5a5.435,5.435,0,0,0-1.822-4.058L5,6.639a7.586,7.586,0,0,1-2.48-4.687H23.482A7.584,7.584,0,0,1,21,6.639Zm0,0" transform="translate(0 0.5)"/>
</svg>
