<svg xmlns="http://www.w3.org/2000/svg" width="19" height="19" viewBox="0 0 19 19">
    <g id="prefix__left" transform="rotate(180 9.5 9.5)">
        <g id="prefix__Group_580" data-name="Group 580">
            <path id="prefix__Path_22" d="M9.5 0A9.5 9.5 0 1 0 19 9.5 9.51 9.51 0 0 0 9.5 0zm1.979 6.333a.4.4 0 0 1-.116.28L8.476 9.5l2.887 2.887a.4.4 0 0 1 .116.28v1.187a.4.4 0 0 1-.676.28L6.449 9.78a.4.4 0 0 1 0-.56L10.8 4.866a.4.4 0 0 1 .676.28z" data-name="Path 22" style="fill:#98a3c7"/>
        </g>
    </g>
</svg>
