<svg id="back_1_" data-name="back (1)" xmlns="http://www.w3.org/2000/svg" width="50" height="50" viewBox="0 0 50 50">
  <g id="Group_183" data-name="Group 183">
    <g id="Group_182" data-name="Group 182">
      <path id="Path_15" data-name="Path 15" d="M25,0A25,25,0,1,0,50,25,25.029,25.029,0,0,0,25,0Zm0,47.917A22.917,22.917,0,1,1,47.917,25,22.943,22.943,0,0,1,25,47.917Z" fill="#d7b56d"/>
      <path id="Path_16" data-name="Path 16" d="M134.792,158.708H110.223l7.6-7.6a1.042,1.042,0,0,0-1.473-1.473l-9.375,9.375a1.041,1.041,0,0,0,0,1.473l9.375,9.375a1.042,1.042,0,1,0,1.473-1.473l-7.6-7.6h24.569a1.042,1.042,0,1,0,0-2.083Z" transform="translate(-96.25 -134.749)" fill="#d7b56d"/>
    </g>
  </g>
</svg>
