<svg id="Group_137" data-name="Group 137" xmlns="http://www.w3.org/2000/svg" width="15.001" height="15" viewBox="0 0 15.001 15">
  <path id="Path_10" data-name="Path 10" d="M9.153,7.516l5.609-5.609a.822.822,0,0,0,0-1.16L14.27.256a.823.823,0,0,0-1.16,0L7.5,5.864,1.892.256a.822.822,0,0,0-1.16,0L.24.747a.821.821,0,0,0,0,1.16L5.849,7.516.24,13.125a.823.823,0,0,0,0,1.16l.492.491a.822.822,0,0,0,1.16,0L7.5,9.168l5.609,5.609a.814.814,0,0,0,.58.24h0a.814.814,0,0,0,.58-.24l.491-.491a.823.823,0,0,0,0-1.16Z" transform="translate(0 -0.016)" fill="#707070"/>
</svg>
