<svg id="down-arrow" xmlns="http://www.w3.org/2000/svg" width="28" height="28" viewBox="0 0 28 28">
  <defs>
    <style>
      .cls-1 {
        fill: #7894f0;
      }
    </style>
  </defs>
  <g id="Group_130" data-name="Group 130">
    <path id="Path_14" data-name="Path 14" class="cls-1" d="M14,0A14,14,0,1,0,28,14,14.016,14.016,0,0,0,14,0Zm5.662,16.746L14.412,22a.583.583,0,0,1-.825,0l-5.25-5.25a.583.583,0,0,1,.412-1H9.917a.583.583,0,0,1,.412.171l2.5,2.5V6.417a.583.583,0,0,1,.583-.583h1.167a.583.583,0,0,1,.583.583V18.425l2.5-2.5a.583.583,0,0,1,.412-.171H19.25a.583.583,0,0,1,.412,1Z"/>
  </g>
</svg>
