<svg id="Layer_1" enable-background="new 0 0 506.736 506.736" height="512" viewBox="0 0 506.736 506.736" width="512" xmlns="http://www.w3.org/2000/svg"><path fill="#ffffff" d="m432.486 74.25c-98.994-98.993-259.228-99.007-358.236 0-98.992 98.992-99.006 259.229 0 358.235 98.994 98.993 259.228 99.007 358.236 0 98.992-98.991 99.006-259.229 0-358.235zm-.673 310.087c-21.623-21.466-46.728-38.691-74.037-51.055 2.797-20.476 4.513-41.928 5.075-63.915h111.256c-2.973 41.883-17.593 81.464-42.294 114.97zm-399.184-114.969h111.256c.562 21.987 2.278 43.439 5.075 63.915-27.309 12.363-52.414 29.588-74.037 51.055-24.701-33.507-39.322-73.088-42.294-114.97zm42.294-146.97c21.623 21.466 46.728 38.691 74.037 51.055-2.797 20.476-4.513 41.928-5.075 63.915h-111.256c2.972-41.883 17.593-81.463 42.294-114.97zm399.184 114.97h-111.256c-.562-21.987-2.278-43.439-5.075-63.915 27.309-12.363 52.414-29.588 74.037-51.055 24.701 33.507 39.321 73.087 42.294 114.97zm-220.739 237.311c-17.485 0-36.688-22.199-51.369-59.382-7.186-18.2-12.999-39.008-17.321-61.605 43.957-14.355 92.011-14.817 137.38 0-4.322 22.597-10.135 43.405-17.321 61.605-14.681 37.183-33.884 59.382-51.369 59.382zm-73.661-152.972c-2.048-16.839-3.335-34.376-3.815-52.339h154.952c-.48 17.964-1.767 35.5-3.815 52.339-46.598-14.171-97.868-15.039-147.322 0zm-3.815-84.339c.48-17.964 1.767-35.5 3.815-52.339 46.597 14.171 97.867 15.04 147.321 0 2.048 16.839 3.335 34.376 3.815 52.339zm235.091-139.338c-17.262 17.507-37.158 31.85-58.782 42.646-6.92-33.646-18.699-71.606-37.621-100.074 36.106 10.33 69.154 29.791 96.403 57.428zm-106.246-6.591c7.186 18.2 12.999 39.008 17.321 61.605-43.957 14.355-92.011 14.817-137.38 0 4.322-22.597 10.135-43.405 17.321-61.605 14.681-37.183 33.884-59.382 51.369-59.382s36.688 22.199 51.369 59.382zm-112.581-50.838c-18.937 28.492-30.71 66.475-37.621 100.074-21.624-10.796-41.52-25.139-58.782-42.646 27.223-27.61 60.261-47.087 96.403-57.428zm-37.621 325.459c6.92 33.645 18.699 71.606 37.621 100.074-36.107-10.331-69.155-29.792-96.403-57.428 17.262-17.507 37.158-31.85 58.782-42.646zm160.045 100.075c18.923-28.47 30.701-66.431 37.621-100.074 21.624 10.796 41.52 25.139 58.782 42.646-27.224 27.61-60.262 47.087-96.403 57.428z"/></svg>