<?xml version="1.0" encoding="utf-8"?>
<!-- Generator: Adobe Illustrator 24.0.2, SVG Export Plug-In . SVG Version: 6.00 Build 0)  -->
<svg version="1.1" id="Layer_1" xmlns="http://www.w3.org/2000/svg" xmlns:xlink="http://www.w3.org/1999/xlink" x="0px" y="0px"
	 viewBox="0 0 200 200" style="enable-background:new 0 0 200 200;" xml:space="preserve">
<g>
	<g>
		<g>
			<path d="M162.13,55.26c-2.38-2.38-6.1-2.73-8.88-0.83c-10.46,7.13-62.93,42.98-68.57,48.62c-8.18,8.18-8.18,21.48,0,29.66
				c4.09,4.09,9.46,6.13,14.83,6.13c5.37,0,10.74-2.04,14.83-6.13c5.64-5.64,41.49-58.11,48.62-68.57
				C164.86,61.37,164.51,57.64,162.13,55.26z M104.46,122.82c-2.73,2.73-7.16,2.73-9.89,0c-2.73-2.73-2.73-7.16,0-9.89
				c2.19-2.17,17.09-12.79,35.42-25.53C117.25,105.74,106.62,120.63,104.46,122.82z"/>
			<path d="M42.27,150.4l-8.63,4.21c-6.32-11.27-9.63-23.85-9.63-36.73c0-9.43,1.74-18.47,4.91-26.8l9.89,4.74
				c0.98,0.47,2,0.69,3.02,0.69c2.61,0,5.11-1.46,6.31-3.97c1.67-3.48,0.2-7.66-3.28-9.33l-9.76-4.68
				C47.23,58.74,68.23,44.94,92.52,42.7v10.51c0,3.86,3.13,6.99,6.99,6.99c3.86,0,6.99-3.13,6.99-6.99V42.69
				c8.33,0.76,16.39,2.88,24.04,6.33c3.52,1.59,7.66,0.02,9.25-3.5c1.59-3.52,0.02-7.66-3.5-9.25c-11.59-5.23-23.97-7.89-36.78-7.89
				c-23.9,0-46.37,9.31-63.28,26.21c-16.9,16.9-26.21,39.37-26.21,63.28c0,17.66,5.24,34.84,15.16,49.68c1.34,2,3.54,3.11,5.82,3.11
				c1.03,0,2.08-0.23,3.06-0.71l14.33-6.99c3.47-1.69,4.91-5.88,3.22-9.35C49.92,150.15,45.74,148.71,42.27,150.4z"/>
			<path d="M181.11,81.1c-1.59-3.52-5.73-5.08-9.25-3.5c-3.52,1.59-5.08,5.73-3.5,9.25c4.41,9.77,6.65,20.21,6.65,31.03
				c0,12.9-3.32,25.5-9.66,36.78l-9.01-4.29c-3.49-1.66-7.66-0.18-9.32,3.31c-1.66,3.49-0.18,7.66,3.31,9.32l14.68,6.99
				c0.97,0.46,1.99,0.68,3,0.68c2.27,0,4.48-1.11,5.82-3.11c9.92-14.84,15.16-32.01,15.16-49.68
				C189,105.07,186.35,92.69,181.11,81.1z"/>
		</g>
	</g>
</g>
</svg>
