<svg xmlns="http://www.w3.org/2000/svg" width="82.969" height="120" viewBox="0 0 82.969 120">
  <g id="Group_12139" data-name="Group 12139" transform="translate(-57 -39)">
    <g id="smartphone_2_" data-name="smartphone (2)" transform="translate(-22 39)">
      <g id="Group_12137" data-name="Group 12137" transform="translate(79)">
        <g id="Group_12136" data-name="Group 12136">
          <path id="Path_8020" data-name="Path 8020" d="M157.281,82.529a4.688,4.688,0,0,0,4.688-4.687V18.75A18.771,18.771,0,0,0,143.219,0H97.75A18.771,18.771,0,0,0,79,18.75v82.5A18.771,18.771,0,0,0,97.75,120h45.469a18.771,18.771,0,0,0,18.75-18.75,4.688,4.688,0,0,0-9.375,0,9.386,9.386,0,0,1-9.375,9.375H97.75a9.386,9.386,0,0,1-9.375-9.375V18.75A9.386,9.386,0,0,1,97.75,9.375h45.469a9.386,9.386,0,0,1,9.375,9.375V77.841A4.688,4.688,0,0,0,157.281,82.529Z" transform="translate(-79)" fill="#fff"/>
          <circle id="Ellipse_31" data-name="Ellipse 31" cx="4.688" cy="4.688" r="4.688" transform="translate(36.797 94.013)" fill="#fff"/>
          <path id="Path_8021" data-name="Path 8021" d="M234.75,75.81a4.687,4.687,0,0,0-4.687-4.687h-9.375a4.688,4.688,0,0,0,0,9.375h9.375A4.688,4.688,0,0,0,234.75,75.81Z" transform="translate(-183.891 -54.453)" fill="#fff"/>
        </g>
      </g>
    </g>
    <g id="Group_12138" data-name="Group 12138" transform="translate(5 6)">
      <g id="Ellipse_32" data-name="Ellipse 32" transform="translate(73 73)" fill="none" stroke="#fff" stroke-width="4">
        <circle cx="20" cy="20" r="20" stroke="none"/>
        <circle cx="20" cy="20" r="18" fill="none"/>
      </g>
      <g id="money_6_" data-name="money (6)" transform="translate(87.117 83.98)">
        <path id="Path_133" data-name="Path 133" d="M84.408,4.163a.406.406,0,0,0-.3-.117H81.877a4.517,4.517,0,0,0-.835-1.879h3.041a.4.4,0,0,0,.417-.417V.418A.4.4,0,0,0,84.082,0H73.224a.4.4,0,0,0-.418.418V2.153a.423.423,0,0,0,.418.418h1.892q2.754,0,3.5,1.475h-5.39a.4.4,0,0,0-.418.418V5.795a.4.4,0,0,0,.418.417H78.8a2.55,2.55,0,0,1-1.338,1.632,5.89,5.89,0,0,1-2.773.561H73.224a.423.423,0,0,0-.418.418V10.48a.39.39,0,0,0,.117.287q2.506,2.662,6.5,7.452a.385.385,0,0,0,.326.157h2.545a.379.379,0,0,0,.379-.235.357.357,0,0,0-.052-.444q-3.81-4.672-5.99-7a6.619,6.619,0,0,0,3.6-1.436,4.879,4.879,0,0,0,1.684-3.054h2.193a.4.4,0,0,0,.418-.417V4.464A.406.406,0,0,0,84.408,4.163Z" transform="translate(-72.806 0)" fill="#fff"/>
      </g>
    </g>
  </g>
</svg>
