<?xml version="1.0" encoding="utf-8"?>
<!-- Generator: Adobe Illustrator 24.0.2, SVG Export Plug-In . SVG Version: 6.00 Build 0)  -->
<svg version="1.1" id="Layer_1" xmlns="http://www.w3.org/2000/svg" xmlns:xlink="http://www.w3.org/1999/xlink" x="0px" y="0px"
	 viewBox="0 0 200 200" style="enable-background:new 0 0 200 200;" xml:space="preserve">
<style type="text/css">
	.st0{fill:#FFFFFF;}
	.st1{fill:#FF7272;}
</style>
<g>
	<g>
		<g>
			<path class="st0" d="M151.71,29.82h26.64c3.68,0,6.66-2.98,6.66-6.66s-2.98-6.66-6.66-6.66h-26.64c-3.68,0-6.66,2.98-6.66,6.66
				S148.03,29.82,151.71,29.82z"/>
			<path class="st0" d="M178.34,100.07H21.19c-3.68,0-6.66,2.98-6.66,6.66v53.6c0,14.69,11.95,26.64,26.64,26.64h117.2
				c14.69,0,26.64-11.95,26.64-26.64c0-3.68-2.98-6.66-6.66-6.66s-6.66,2.98-6.66,6.66c0,7.34-5.97,13.32-13.32,13.32H41.17
				c-7.34,0-13.32-5.97-13.32-13.32v-46.94h41.08c-1.82,4.49-2.79,9.37-2.79,14.32c0,19.83,15.09,35.96,33.63,35.96
				s33.63-16.13,33.63-35.96c0-4.96-0.97-9.83-2.79-14.32h41.08v13.65c0,3.68,2.98,6.66,6.66,6.66s6.66-2.98,6.66-6.66v-20.31
				C185,103.05,182.02,100.07,178.34,100.07z M99.77,150.34c-11.2,0-20.31-10.16-20.31-22.64c0-5.22,1.63-10.29,4.59-14.32h31.44
				c2.96,4.03,4.59,9.09,4.59,14.32C120.08,140.19,110.97,150.34,99.77,150.34z"/>
			<path class="st0" d="M34.51,86.42h77.24c11.02,0,19.98-8.96,19.98-19.98V36.48c0-11.02-8.96-19.98-19.98-19.98H34.51
				c-11.02,0-19.98,8.96-19.98,19.98v29.96C14.53,77.46,23.5,86.42,34.51,86.42z M27.85,36.48c0-3.67,2.99-6.66,6.66-6.66h77.24
				c3.67,0,6.66,2.99,6.66,6.66v29.96c0,3.67-2.99,6.66-6.66,6.66H34.51c-3.67,0-6.66-2.99-6.66-6.66V36.48z"/>
			<circle class="st0" cx="152.7" cy="130.7" r="6.66"/>
			<path class="st0" d="M178.34,73.1h-26.64c-3.68,0-6.66,2.98-6.66,6.66s2.98,6.66,6.66,6.66h26.64c3.68,0,6.66-2.98,6.66-6.66
				S182.02,73.1,178.34,73.1z"/>
			<path class="st0" d="M178.34,44.8h-26.64c-3.68,0-6.66,2.98-6.66,6.66s2.98,6.66,6.66,6.66h26.64c3.68,0,6.66-2.98,6.66-6.66
				S182.02,44.8,178.34,44.8z"/>
			<circle class="st0" cx="46.83" cy="130.7" r="6.66"/>
		</g>
	</g>
</g>
</svg>
