<?xml version="1.0" encoding="utf-8"?>
<!-- Generator: Adobe Illustrator 24.0.2, SVG Export Plug-In . SVG Version: 6.00 Build 0)  -->
<svg version="1.1" id="Layer_1" xmlns="http://www.w3.org/2000/svg" xmlns:xlink="http://www.w3.org/1999/xlink" x="0px" y="0px"
	 viewBox="0 0 200 200" style="enable-background:new 0 0 200 200;" xml:space="preserve">
<style type="text/css">
	.st0{fill:#FFFFFF;}
	.st1{fill:#FF7272;}
</style>
<g>
	<g>
		<g>
			<path class="st0" d="M167.1,133.89c3.9,0,7.07-3.16,7.07-7.07V37.77c0-15.59-12.68-28.27-28.27-28.27H59.01
				c-15.59,0-28.27,12.68-28.27,28.27v124.39c0,15.59,12.68,28.27,28.27,28.27h86.89c15.59,0,28.27-12.68,28.27-28.27
				c0-3.9-3.16-7.07-7.07-7.07c-3.9,0-7.07,3.16-7.07,7.07c0,7.79-6.34,14.14-14.14,14.14H59.01c-7.79,0-14.14-6.34-14.14-14.14
				V37.77c0-7.79,6.34-14.14,14.14-14.14h86.89c7.79,0,14.14,6.34,14.14,14.14v89.05C160.03,130.73,163.2,133.89,167.1,133.89z"/>
		</g>
	</g>
	<g>
		<g>
			<path class="st0" d="M138.83,51.91h-72.8c-3.9,0-7.07,3.16-7.07,7.07s3.16,7.07,7.07,7.07h72.8c3.9,0,7.07-3.16,7.07-7.07
				S142.73,51.91,138.83,51.91z"/>
		</g>
	</g>
	<g>
		<g>
			<path class="st0" d="M138.83,80.18h-72.8c-3.9,0-7.07,3.16-7.07,7.07s3.16,7.07,7.07,7.07h72.8c3.9,0,7.07-3.16,7.07-7.07
				S142.73,80.18,138.83,80.18z"/>
		</g>
	</g>
	<g>
		<g>
			<path class="st0" d="M110.25,108.45H66.03c-3.9,0-7.07,3.16-7.07,7.07s3.16,7.07,7.07,7.07h44.21c3.9,0,7.07-3.16,7.07-7.07
				C117.31,111.61,114.15,108.45,110.25,108.45z"/>
		</g>
	</g>
</g>
</svg>
