<?xml version="1.0" encoding="utf-8"?>
<!-- Generator: Adobe Illustrator 24.0.2, SVG Export Plug-In . SVG Version: 6.00 Build 0)  -->
<svg version="1.1" id="Layer_1" xmlns="http://www.w3.org/2000/svg" xmlns:xlink="http://www.w3.org/1999/xlink" x="0px" y="0px"
	 viewBox="0 0 200 200" style="enable-background:new 0 0 200 200;" xml:space="preserve">
<style type="text/css">
	.st0{fill:#FFFFFF;}
	.st1{fill:#FF7272;}
</style>
<g>
	<g>
		<path class="st0" d="M178.32,131.06c3.69,0,6.68-2.99,6.68-6.68V64.27c0-3.69-2.99-6.68-6.68-6.68h-42.08v-7.35
			c0-20.26-16.48-36.74-36.74-36.74S62.76,29.98,62.76,50.24v7.35H20.68c-3.69,0-6.68,2.99-6.68,6.68v93.52
			c0,14.73,11.99,26.72,26.72,26.72h117.56c14.73,0,26.72-11.99,26.72-26.72c0-3.69-2.99-6.68-6.68-6.68s-6.68,2.99-6.68,6.68
			c0,7.37-5.99,13.36-13.36,13.36H40.72c-7.37,0-13.36-5.99-13.36-13.36V70.95h35.4v25.05c0,3.69,2.99,6.68,6.68,6.68
			s6.68-2.99,6.68-6.68V50.24c0-12.89,10.49-23.38,23.38-23.38s23.38,10.49,23.38,23.38v7.35H96.16c-3.69,0-6.68,2.99-6.68,6.68
			s2.99,6.68,6.68,6.68h26.72v25.05c0,3.69,2.99,6.68,6.68,6.68c3.69,0,6.68-2.99,6.68-6.68V70.95h35.4v53.44
			C171.64,128.07,174.63,131.06,178.32,131.06z"/>
	</g>
</g>
</svg>
