<?xml version="1.0" encoding="utf-8"?>
<!-- Generator: Adobe Illustrator 24.0.2, SVG Export Plug-In . SVG Version: 6.00 Build 0)  -->
<svg version="1.1" id="Layer_1" xmlns="http://www.w3.org/2000/svg" xmlns:xlink="http://www.w3.org/1999/xlink" x="0px" y="0px"
	 viewBox="0 0 200 200" style="enable-background:new 0 0 200 200;" xml:space="preserve">
<style type="text/css">
	.st0{fill:#FFFFFF;}
	.st1{fill:#FF7272;}
</style>
<g>
	<g>
		<g>
			<path class="st0" d="M171.72,149.9c-3.6,0-6.52,2.92-6.52,6.52c0,7.19-5.85,13.04-13.04,13.04H50.44
				c-7.19,0-13.04-5.85-13.04-13.04V84.04c0-3.6-2.92-6.52-6.52-6.52s-6.52,2.92-6.52,6.52v72.38c0,14.38,11.7,26.08,26.08,26.08
				h101.72c14.38,0,26.08-11.7,26.08-26.08C178.24,152.82,175.32,149.9,171.72,149.9z"/>
			<path class="st0" d="M165.2,15.58H37.4c-10.79,0-19.56,8.77-19.56,19.56V54.7c0,3.6,2.92,6.52,6.52,6.52H165.2v62.27
				c0,3.6,2.92,6.52,6.52,6.52c3.6,0,6.52-2.92,6.52-6.52V61.22c3.6,0,6.52-2.92,6.52-6.52V35.14
				C184.76,24.36,175.99,15.58,165.2,15.58z M171.72,48.18H30.88V35.14c0-3.6,2.92-6.52,6.52-6.52h127.8c3.6,0,6.52,2.92,6.52,6.52
				V48.18z"/>
			<path class="st0" d="M115.65,87.3c3.6,0,6.52-2.92,6.52-6.52c0-3.6-2.92-6.52-6.52-6.52H86.3c-3.6,0-6.52,2.92-6.52,6.52
				c0,3.6,2.92,6.52,6.52,6.52H115.65z"/>
		</g>
	</g>
</g>
</svg>
