<?xml version="1.0" encoding="utf-8"?>
<!-- Generator: Adobe Illustrator 24.0.2, SVG Export Plug-In . SVG Version: 6.00 Build 0)  -->
<svg version="1.1" id="Layer_1" xmlns="http://www.w3.org/2000/svg" xmlns:xlink="http://www.w3.org/1999/xlink" x="0px" y="0px"
	 viewBox="0 0 200 200" style="enable-background:new 0 0 200 200;" xml:space="preserve">
<style type="text/css">
	.st0{fill:#FFFFFF;}
	.st1{fill:#FF7272;}
</style>
<path class="st0" d="M194.43,163.88c-0.79-3.78-4.49-6.21-8.27-5.42c-3.78,0.79-6.21,4.49-5.42,8.27c0.45,2.18-0.09,4.41-1.48,6.12
	c-0.81,0.99-2.61,2.66-5.59,2.66H37.11c-2.98,0-4.79-1.67-5.59-2.66c-1.39-1.71-1.93-3.95-1.48-6.12
	c5.1-24.48,21.78-44.32,43.56-54.27c5.28,6.33,11.73,11.64,17.16,15.53c-3.91,3.81-6.34,9.13-6.34,15
	c0,11.57,9.41,20.98,20.98,20.98s20.98-9.41,20.98-20.98c0-5.88-2.43-11.19-6.34-15c5.44-3.9,11.91-9.23,17.2-15.58
	c12.84,5.83,24.03,15.18,32.14,27.28c2.15,3.21,6.49,4.06,9.7,1.91c3.21-2.15,4.06-6.49,1.91-9.7
	c-11.47-17.11-28.13-29.55-47.13-35.8c11.58-8.68,19.08-22.51,19.08-38.06c0-26.22-21.33-47.55-47.55-47.55S57.84,31.83,57.84,58.05
	c0,15.56,7.51,29.4,19.1,38.08c-10.62,3.5-20.58,8.93-29.3,16.1c-15.99,13.15-27.1,31.49-31.3,51.65c-1.32,6.32,0.26,12.8,4.32,17.8
	c4.04,4.97,10.03,7.82,16.44,7.82h136.56c6.41,0,12.4-2.85,16.44-7.82C194.17,176.68,195.75,170.2,194.43,163.88L194.43,163.88z
	 M105.39,149.99c-3.86,0-6.99-3.14-6.99-6.99s3.14-6.99,6.99-6.99s6.99,3.14,6.99,6.99S109.24,149.99,105.39,149.99z M71.83,58.05
	c0-18.51,15.06-33.56,33.56-33.56s33.56,15.06,33.56,33.56c0,17.95-14.16,32.65-31.9,33.52c-0.55-0.01-2.76-0.01-3.3,0
	C86,90.71,71.83,76,71.83,58.05L71.83,58.05z M107.05,105.56c5.35,0.12,10.61,0.78,15.71,1.96c-6.15,6.13-13.31,10.91-17.38,13.41
	c-4.07-2.49-11.21-7.27-17.36-13.39c5.05-1.18,10.26-1.86,15.58-1.98C104.2,105.58,106.5,105.58,107.05,105.56L107.05,105.56z"/>
</svg>
