<?xml version="1.0" encoding="utf-8"?>
<!-- Generator: Adobe Illustrator 24.0.2, SVG Export Plug-In . SVG Version: 6.00 Build 0)  -->
<svg version="1.1" id="Layer_1" xmlns="http://www.w3.org/2000/svg" xmlns:xlink="http://www.w3.org/1999/xlink" x="0px" y="0px"
	 viewBox="0 0 200 200" style="enable-background:new 0 0 200 200;" xml:space="preserve">
<style type="text/css">
	.st0{fill:#FFFFFF;}
</style>
<g>
	<path class="st0" d="M100.41,117.58l-29.63,0.01c0,0,0,0,0,0c-2.75,0-4.98-2.23-4.98-4.98c0-2.75,2.23-4.98,4.98-4.99l29.63-0.01h0
		c2.75,0,4.98,2.23,4.98,4.98C105.39,115.34,103.16,117.57,100.41,117.58z M93.68,125.8l-22.91,0.01c-2.75,0-4.98,2.23-4.98,4.99
		s2.23,4.98,4.98,4.98h0l22.91-0.01c2.75,0,4.98-2.23,4.98-4.99S96.43,125.8,93.68,125.8C93.68,125.8,93.68,125.8,93.68,125.8z
		 M145.53,124.87l-29.64,29.61c0,0,0,0,0,0l0,0c-0.01,0.01-0.01,0.01-0.02,0.02c-0.11,0.11-0.22,0.21-0.34,0.31
		c-0.03,0.03-0.06,0.05-0.09,0.07c-0.1,0.08-0.2,0.15-0.3,0.22c-0.03,0.02-0.06,0.03-0.08,0.05c-0.11,0.07-0.22,0.14-0.33,0.2
		c-0.02,0.01-0.04,0.02-0.06,0.03c-0.13,0.06-0.25,0.13-0.38,0.18c-0.01,0-0.02,0.01-0.03,0.01c-0.14,0.06-0.28,0.11-0.43,0.15
		c-0.01,0-0.02,0-0.03,0.01c-0.14,0.04-0.29,0.08-0.44,0.11c-0.03,0.01-0.07,0.01-0.1,0.02c-0.13,0.02-0.25,0.04-0.38,0.06
		c-0.16,0.02-0.33,0.03-0.5,0.03l-46.58,0.01c-10.99,0-19.93-8.94-19.93-19.93v-87.7c0-10.99,8.94-19.93,19.93-19.93h61.26
		c10.99,0,19.93,8.94,19.93,19.93l0.01,48.08c0,2.75-2.23,4.98-4.98,4.98s-4.98-2.23-4.98-4.98l-0.01-48.08
		c0-5.5-4.47-9.97-9.97-9.97H65.79c-5.49,0-9.97,4.47-9.97,9.97v87.7c0,5.49,4.47,9.97,9.97,9.97l41.59-0.01V133.8
		c0-9.62,7.82-17.44,17.44-17.44h17.19c0.17,0,0.33,0.01,0.5,0.03c0.07,0.01,0.14,0.02,0.21,0.03c0.09,0.01,0.18,0.02,0.27,0.04
		c0.08,0.02,0.17,0.04,0.25,0.06c0.07,0.02,0.15,0.03,0.22,0.06c0.08,0.03,0.16,0.06,0.25,0.09c0.07,0.03,0.14,0.05,0.21,0.08
		c0.08,0.03,0.15,0.07,0.23,0.11c0.07,0.03,0.14,0.06,0.21,0.1c0.08,0.04,0.15,0.09,0.22,0.13c0.06,0.04,0.13,0.07,0.19,0.12
		c0.09,0.06,0.17,0.12,0.26,0.19c0.04,0.03,0.09,0.06,0.13,0.1c0.26,0.21,0.49,0.45,0.7,0.7c0.03,0.04,0.06,0.08,0.09,0.12
		c0.07,0.09,0.14,0.18,0.2,0.27c0.04,0.06,0.07,0.12,0.11,0.17c0.05,0.08,0.1,0.16,0.15,0.24c0.03,0.06,0.06,0.12,0.09,0.18
		c0.04,0.09,0.08,0.17,0.12,0.26c0.02,0.06,0.04,0.12,0.07,0.18c0.04,0.09,0.07,0.19,0.1,0.28c0.02,0.06,0.03,0.12,0.04,0.17
		c0.03,0.1,0.05,0.2,0.07,0.3c0.01,0.06,0.02,0.12,0.03,0.18c0.02,0.1,0.03,0.2,0.04,0.3c0.01,0.09,0.01,0.17,0.01,0.26
		c0,0.07,0.01,0.15,0.01,0.22c0,0.07-0.01,0.14-0.01,0.22c0,0.09,0,0.18-0.01,0.27c-0.01,0.1-0.03,0.2-0.04,0.3
		c-0.01,0.06-0.02,0.12-0.03,0.18c-0.02,0.1-0.05,0.2-0.07,0.3c-0.02,0.06-0.03,0.11-0.04,0.17c-0.03,0.1-0.07,0.19-0.1,0.28
		c-0.02,0.06-0.04,0.12-0.07,0.18c-0.04,0.09-0.08,0.17-0.12,0.26c-0.03,0.06-0.06,0.12-0.09,0.18c-0.04,0.08-0.1,0.16-0.15,0.25
		c-0.04,0.06-0.07,0.12-0.11,0.17c-0.06,0.09-0.13,0.18-0.2,0.27c-0.03,0.04-0.06,0.08-0.09,0.12
		C145.77,124.62,145.65,124.75,145.53,124.87z M117.35,133.8v5.14l12.63-12.62h-5.15C120.7,126.32,117.35,129.68,117.35,133.8z
		 M112.09,98.16h-31.8c-2.5,0-4.83-1.11-6.41-3.05c-1.58-1.95-2.2-4.47-1.69-6.93c1.41-6.81,5.65-12.48,11.32-15.91
		c-1.9-2.59-3.02-5.79-3.02-9.24c0-8.65,7.04-15.7,15.7-15.7s15.7,7.04,15.7,15.7c0,3.45-1.12,6.65-3.02,9.24
		c5.67,3.42,9.9,9.1,11.32,15.91c0.51,2.46-0.1,4.98-1.69,6.93C116.92,97.04,114.58,98.16,112.09,98.16z M90.46,63.03
		c0,3.16,2.57,5.73,5.73,5.73s5.73-2.57,5.73-5.73c0-3.16-2.57-5.73-5.73-5.73S90.46,59.87,90.46,63.03z M109.85,88.19
		c-2.05-5.59-7.45-9.47-13.53-9.47h-0.26c-6.08,0-11.48,3.88-13.53,9.47H109.85z"/>
</g>
</svg>
