<?xml version="1.0" encoding="utf-8"?>
<!-- Generator: Adobe Illustrator 24.0.2, SVG Export Plug-In . SVG Version: 6.00 Build 0)  -->
<svg version="1.1" id="Layer_1" xmlns="http://www.w3.org/2000/svg" xmlns:xlink="http://www.w3.org/1999/xlink" x="0px" y="0px"
	 viewBox="0 0 200 200" style="enable-background:new 0 0 200 200;" xml:space="preserve">
<style type="text/css">
	.st0{fill:#FFFFFF;}
</style>
<path class="st0" d="M165.56,88.24c0,4.07-3.29,7.36-7.36,7.36h-42.69c-4.07,0-7.36-3.29-7.36-7.36s3.29-7.36,7.36-7.36h42.69
	C162.26,80.88,165.56,84.18,165.56,88.24z M86.06,80.88H43.37c-4.07,0-7.36,3.29-7.36,7.36s3.29,7.36,7.36,7.36h42.69
	c4.07,0,7.36-3.29,7.36-7.36S90.13,80.88,86.06,80.88z M165.56,117.68c0-4.07-3.29-7.36-7.36-7.36h-42.69
	c-4.07,0-7.36,3.29-7.36,7.36s3.29,7.36,7.36,7.36h42.69C162.26,125.04,165.56,121.75,165.56,117.68z M86.06,110.32H43.37
	c-4.07,0-7.36,3.29-7.36,7.36s3.29,7.36,7.36,7.36h42.69c4.07,0,7.36-3.29,7.36-7.36S90.13,110.32,86.06,110.32z M115.51,139.77
	c-4.07,0-7.36,3.29-7.36,7.36c0,4.07,3.29,7.36,7.36,7.36h27.97c4.07,0,7.36-3.29,7.36-7.36c0-4.07-3.29-7.36-7.36-7.36H115.51z
	 M86.06,139.77H43.37c-4.07,0-7.36,3.29-7.36,7.36c0,4.07,3.29,7.36,7.36,7.36h42.69c4.07,0,7.36-3.29,7.36-7.36
	C93.43,143.06,90.13,139.77,86.06,139.77z M195,37.82v85.38c0,4.07-3.29,7.36-7.36,7.36c-4.07,0-7.36-3.29-7.36-7.36V60.27H21.29
	v99.73c0,8.12,6.6,14.72,14.72,14.72h129.54c8.12,0,14.72-6.6,14.72-14.72c0-4.07,3.29-7.36,7.36-7.36c4.07,0,7.36,3.29,7.36,7.36
	c0,16.23-13.21,29.44-29.44,29.44H36.01c-16.23,0-29.44-13.21-29.44-29.44V37.82c0-12.18,9.91-22.08,22.08-22.08h144.27
	C185.09,15.74,195,25.65,195,37.82z M135.75,37.82c0,4.06,3.3,7.36,7.36,7.36c4.06,0,7.36-3.3,7.36-7.36s-3.3-7.36-7.36-7.36
	C139.05,30.46,135.75,33.76,135.75,37.82z M172.55,30.46c-4.06,0-7.36,3.3-7.36,7.36s3.3,7.36,7.36,7.36c4.06,0,7.36-3.3,7.36-7.36
	S176.61,30.46,172.55,30.46z M21.29,45.55h101.13c-0.9-2.41-1.4-5.01-1.4-7.73c0-2.58,0.45-5.06,1.27-7.36H28.65
	c-4.06,0-7.36,3.3-7.36,7.36V45.55z"/>
</svg>
