<?xml version="1.0" encoding="utf-8"?>
<!-- Generator: Adobe Illustrator 24.0.2, SVG Export Plug-In . SVG Version: 6.00 Build 0)  -->
<svg version="1.1" id="Layer_1" xmlns="http://www.w3.org/2000/svg" xmlns:xlink="http://www.w3.org/1999/xlink" x="0px" y="0px"
	 viewBox="0 0 200 200" style="enable-background:new 0 0 200 200;" xml:space="preserve">
<style type="text/css">
	.st0{fill:#FFFFFF;}
</style>
<g>
	<path class="st0" d="M186,96.14c0-10.56-8.59-19.16-19.16-19.16h-3.38c-1.3,0-2.46-0.8-2.98-2.05l-0.05-0.12
		c-0.52-1.25-0.26-2.65,0.66-3.56l2.39-2.39c3.62-3.62,5.61-8.43,5.61-13.54s-1.99-9.93-5.61-13.55l-4.75-4.75
		c-3.62-3.62-8.43-5.61-13.55-5.61s-9.93,1.99-13.54,5.61l-2.39,2.39c-0.92,0.92-2.32,1.17-3.56,0.66l-0.12-0.05
		c-1.25-0.52-2.05-1.68-2.05-2.98v-3.38c0-10.56-8.59-19.16-19.16-19.16h-6.72c-10.56,0-19.16,8.59-19.16,19.16v3.38
		c0,1.3-0.8,2.46-2.05,2.98l-0.12,0.05c-1.25,0.51-2.65,0.26-3.56-0.66l-2.39-2.39c-3.62-3.62-8.43-5.61-13.55-5.61
		c-5.12,0-9.93,1.99-13.55,5.61l-4.75,4.75c-3.62,3.62-5.61,8.43-5.61,13.55s1.99,9.93,5.61,13.55l2.39,2.39
		c0.92,0.92,1.17,2.31,0.66,3.56l-0.05,0.12c-0.51,1.24-1.68,2.04-2.98,2.04h-3.38C24.59,76.98,16,85.58,16,96.14v6.72
		c0,10.56,8.59,19.16,19.16,19.16h3.38c1.3,0,2.47,0.8,2.98,2.05l0.05,0.13c0.52,1.24,0.26,2.64-0.66,3.56l-2.39,2.39
		c-3.62,3.62-5.61,8.43-5.61,13.54s1.99,9.93,5.61,13.55l4.75,4.75c3.62,3.62,8.43,5.61,13.55,5.61c5.12,0,9.93-1.99,13.55-5.61
		l2.39-2.39c0.6-0.6,1.41-0.92,2.25-0.92c0.44,0,0.88,0.09,1.31,0.26l0.12,0.05c1.25,0.51,2.05,1.68,2.05,2.98v3.38
		c0,10.56,8.59,19.16,19.16,19.16h6.72c10.56,0,19.16-8.59,19.16-19.16v-3.38c0-1.3,0.8-2.46,2.05-2.98l0.12-0.05
		c1.25-0.52,2.65-0.26,3.56,0.66l2.39,2.39c3.62,3.62,8.43,5.61,13.55,5.61c5.12,0,9.93-1.99,13.55-5.61c2.23-2.23,2.23-5.86,0-8.09
		c-2.23-2.23-5.86-2.23-8.09,0c-1.46,1.46-3.39,2.26-5.46,2.26s-4-0.8-5.46-2.26l-2.39-2.39c-4.21-4.2-10.5-5.43-16.04-3.13
		l-0.1,0.04c-5.54,2.29-9.12,7.61-9.12,13.55v3.38c0,4.26-3.46,7.72-7.72,7.72h-6.72c-4.26,0-7.72-3.46-7.72-7.72v-3.38
		c0-5.94-3.58-11.26-9.12-13.55l-0.1-0.04c-5.54-2.3-11.83-1.07-16.04,3.13l-2.39,2.39c-1.46,1.46-3.4,2.26-5.46,2.26
		s-4-0.8-5.46-2.26l-4.75-4.75c-1.46-1.46-2.26-3.39-2.26-5.46c0-2.06,0.8-4,2.26-5.46l2.39-2.39c4.2-4.2,5.43-10.5,3.13-16.04
		l-0.04-0.1c-2.29-5.54-7.61-9.12-13.55-9.12h-3.38c-4.26,0-7.72-3.46-7.72-7.72v-6.72c0-4.26,3.46-7.72,7.72-7.72h3.38
		c5.94,0,11.26-3.58,13.55-9.12l0.04-0.1c2.3-5.54,1.07-11.83-3.13-16.04l-2.39-2.39c-1.46-1.46-2.26-3.39-2.26-5.46
		c0-2.06,0.8-4,2.26-5.46l4.75-4.75c1.46-1.46,3.39-2.26,5.46-2.26s4,0.8,5.46,2.26l2.39,2.39c4.2,4.2,10.5,5.43,16.04,3.13
		l0.1-0.04c5.54-2.29,9.12-7.61,9.12-13.55v-3.38c0-4.26,3.46-7.72,7.72-7.72h6.72c4.26,0,7.72,3.46,7.72,7.72v3.38
		c0,5.94,3.58,11.26,9.12,13.55l0.1,0.04c5.54,2.3,11.83,1.07,16.04-3.13l2.39-2.39c1.46-1.46,3.4-2.26,5.46-2.26s4,0.8,5.46,2.26
		l4.75,4.75c1.46,1.46,2.26,3.39,2.26,5.46s-0.8,4-2.26,5.46L153,63.17c-4.2,4.2-5.44,10.49-3.14,16.01l0.05,0.12
		c2.29,5.54,7.61,9.12,13.55,9.12h3.38c4.26,0,7.72,3.46,7.72,7.72v6.72c0,4.26-3.46,7.72-7.72,7.72h-3.38
		c-5.94,0-11.26,3.58-13.55,9.12l-0.04,0.1c-2.3,5.54-1.07,11.83,3.13,16.04c2.23,2.23,5.86,2.23,8.09,0
		c1.08-1.08,1.68-2.52,1.68-4.04c0-1.53-0.59-2.96-1.68-4.04c-0.92-0.92-1.17-2.31-0.66-3.56l0.05-0.12
		c0.51-1.24,1.68-2.05,2.98-2.05h3.38c10.56,0,19.16-8.59,19.16-19.16V96.14z"/>
	<path class="st0" d="M89.69,115.88L71.93,99.66c-1.09-1-2.48-1.49-3.85-1.49c-1.55,0-3.1,0.63-4.22,1.86
		c-2.13,2.33-1.96,5.95,0.37,8.08l17.71,16.18c3.3,3.12,7.74,4.73,12.26,4.41c4.53-0.3,8.76-2.5,11.61-6.04
		c0.07-0.09,0.14-0.18,0.21-0.28L133.88,83c0.88-1.25,1.23-2.76,0.97-4.27c-0.26-1.51-1.08-2.82-2.33-3.7
		c-2.57-1.82-6.15-1.21-7.97,1.36l-27.73,39.17c-1.2,1.39-2.63,1.67-3.38,1.73c-0.78,0.05-2.32-0.05-3.66-1.32l0.59-0.82
		L89.69,115.88z"/>
</g>
</svg>
