<?xml version="1.0" encoding="utf-8"?>
<!-- Generator: Adobe Illustrator 24.0.2, SVG Export Plug-In . SVG Version: 6.00 Build 0)  -->
<svg version="1.1" id="Layer_1" xmlns="http://www.w3.org/2000/svg" xmlns:xlink="http://www.w3.org/1999/xlink" x="0px" y="0px"
	 viewBox="0 0 200 200" style="enable-background:new 0 0 200 200;" xml:space="preserve">
<style type="text/css">
	.st0{fill:#FFFFFF;}
</style>
<path class="st0" d="M144.81,61.23c9.66,0,17.52-7.86,17.52-17.52s-7.86-17.52-17.52-17.52c-9.66,0-17.52,7.86-17.52,17.52
	S135.15,61.23,144.81,61.23z M144.81,37.87c3.22,0,5.84,2.62,5.84,5.84s-2.62,5.84-5.84,5.84c-3.22,0-5.84-2.62-5.84-5.84
	S141.59,37.87,144.81,37.87z M156.48,66.77h-23.36c-9.66,0-17.52,7.86-17.52,17.52v13.43H87.89L73.17,69.88
	c-1.01-1.91-3-3.11-5.16-3.11H65.4c-9.66,0-17.52,7.86-17.52,17.52v34.45c0,2.05,0.36,4.01,1,5.84H36.49c-0.1,0-0.2,0.01-0.29,0.01
	V82.25c0-3.23-2.61-5.84-5.84-5.84s-5.84,2.61-5.84,5.84v87.58c0,3.23,2.61,5.84,5.84,5.84s5.84-2.61,5.84-5.84v-33.59
	c0.1,0.01,0.19,0.01,0.29,0.01h25.4c3.22,0,5.84,2.62,5.84,5.84v27.73c0,3.23,2.61,5.84,5.84,5.84c3.23,0,5.84-2.61,5.84-5.84
	v-27.73c0-2.05-0.36-4.01-1-5.84h12.68v16.06c0,12.88,10.48,23.36,23.36,23.36h36.2c12.88,0,23.36-10.48,23.36-23.36
	c0-3.23-2.61-5.84-5.84-5.84c-3.23,0-5.84,2.61-5.84,5.84c0,6.44-5.24,11.68-11.68,11.68h-36.2c-6.44,0-11.68-5.24-11.68-11.68
	V109.4h59.56v13.92c0,3.23,2.61,5.84,5.84,5.84c3.23,0,5.84-2.61,5.84-5.84V84.29C174,74.63,166.14,66.77,156.48,66.77z
	 M91.09,124.58H65.4c-3.22,0-5.84-2.62-5.84-5.84V84.29c0-2.92,2.16-5.35,4.97-5.77l14.69,27.77c1.01,1.91,3,3.11,5.16,3.11h6.71
	V124.58z M127.29,97.72V84.29c0-3.22,2.62-5.84,5.84-5.84h23.36c3.22,0,5.84,2.62,5.84,5.84v13.43H127.29z M64.23,61.23
	c9.66,0,17.52-7.86,17.52-17.52s-7.86-17.52-17.52-17.52s-17.52,7.86-17.52,17.52S54.57,61.23,64.23,61.23z M64.23,37.87
	c3.22,0,5.84,2.62,5.84,5.84s-2.62,5.84-5.84,5.84c-3.22,0-5.84-2.62-5.84-5.84S61.01,37.87,64.23,37.87z"/>
</svg>
