<?xml version="1.0" encoding="utf-8"?>
<!-- Generator: Adobe Illustrator 24.0.2, SVG Export Plug-In . SVG Version: 6.00 Build 0)  -->
<svg version="1.1" id="Layer_1" xmlns="http://www.w3.org/2000/svg" xmlns:xlink="http://www.w3.org/1999/xlink" x="0px" y="0px"
	 viewBox="0 0 200 200" style="enable-background:new 0 0 200 200;" xml:space="preserve">
<style type="text/css">
	.st0{fill:#FFFFFF;}
</style>
<path class="st0" d="M177.7,77.67v-8.25c0-0.72-0.14-1.43-0.43-2.1L163.17,34.3c-3.84-8.99-12.63-14.8-22.41-14.8H54.27
	c-9.78,0-18.58,5.81-22.41,14.8L17.76,67.33c-0.28,0.67-0.43,1.37-0.43,2.1v8.25c0,8,4.75,15.28,12.09,18.52l0.6,0.26v59.03
	c0,13.44,10.93,24.37,24.37,24.37h86.25c13.44,0,24.37-10.93,24.37-24.37c0-2.95-2.4-5.34-5.34-5.34c-2.95,0-5.34,2.4-5.34,5.34
	c0,7.55-6.14,13.68-13.68,13.68H54.39c-7.55,0-13.68-6.14-13.68-13.68v-57.8l0.81-0.16c3.88-0.77,7.43-2.65,10.27-5.45l0.7-0.69
	l0.7,0.69c0.56,0.55,1.17,1.09,1.81,1.58l0.39,0.3v41.55c0,2.95,2.4,5.34,5.34,5.34h73.57c2.95,0,5.34-2.4,5.34-5.34V93.97l0.39-0.3
	c0.64-0.49,1.25-1.03,1.81-1.58l0.7-0.69l0.7,0.69c2.84,2.8,6.39,4.68,10.27,5.45l0.81,0.16v26.09c0,2.95,2.4,5.34,5.34,5.34
	c2.95,0,5.34-2.4,5.34-5.34V96.46l0.6-0.26C172.95,92.95,177.7,85.68,177.7,77.67z M47.14,77.67c0,5.27-4.29,9.56-9.56,9.56
	s-9.56-4.29-9.56-9.56v-3.09h19.12V77.67z M57.83,77.67v-3.09h19.12v3.09c0,5.27-4.29,9.56-9.56,9.56S57.83,82.94,57.83,77.67z
	 M128.96,130.17H66.07V97.89l1.32,0.03c5.39,0,10.47-2.1,14.29-5.92l0.7-0.7l0.71,0.7c3.88,3.82,9,5.93,14.42,5.93
	s10.55-2.1,14.42-5.93l0.71-0.7l0.7,0.7c3.83,3.82,8.9,5.92,14.29,5.92l1.32-0.03V130.17z M87.63,77.35v-2.77h19.76v2.77
	c0,5.45-4.43,9.88-9.88,9.88C92.07,87.23,87.63,82.8,87.63,77.35z M137.2,77.67c0,5.27-4.29,9.56-9.56,9.56s-9.56-4.29-9.56-9.56
	v-3.09h19.12V77.67z M30.84,63.9l10.84-25.4c2.16-5.05,7.1-8.31,12.59-8.31h86.49c5.49,0,10.43,3.26,12.59,8.31l10.84,25.4H30.84z
	 M167.01,77.67c0,5.27-4.29,9.56-9.56,9.56s-9.56-4.29-9.56-9.56v-3.09h19.12V77.67z"/>
</svg>
