<?xml version="1.0" encoding="utf-8"?>
<!-- Generator: Adobe Illustrator 24.0.2, SVG Export Plug-In . SVG Version: 6.00 Build 0)  -->
<svg version="1.1" id="Layer_1" xmlns="http://www.w3.org/2000/svg" xmlns:xlink="http://www.w3.org/1999/xlink" x="0px" y="0px"
	 viewBox="0 0 200 200" style="enable-background:new 0 0 200 200;" xml:space="preserve">
<style type="text/css">
	.st0{fill:#FFFFFF;}
</style>
<g>
	<path class="st0" d="M78.3,22.01H39.37c-8.45,0-15.29,6.85-15.29,15.29v38.93c0,8.45,6.85,15.29,15.29,15.29H78.3
		c8.45,0,15.29-6.85,15.29-15.29V37.3C93.59,28.86,86.74,22.01,78.3,22.01z"/>
	<path class="st0" d="M78.3,105.42H39.37c-8.45,0-15.29,6.85-15.29,15.29v38.93c0,8.45,6.85,15.29,15.29,15.29H78.3
		c8.45,0,15.29-6.85,15.29-15.29v-38.93C93.59,112.27,86.74,105.42,78.3,105.42z"/>
	<path class="st0" d="M161.71,22.01h-38.93c-8.45,0-15.29,6.85-15.29,15.29v38.93c0,8.45,6.85,15.29,15.29,15.29h38.93
		c8.45,0,15.29-6.85,15.29-15.29V37.3C177,28.86,170.15,22.01,161.71,22.01z"/>
	<path class="st0" d="M161.71,105.42h-38.93c-8.45,0-15.29,6.85-15.29,15.29v38.93c0,8.45,6.85,15.29,15.29,15.29h38.93
		c8.45,0,15.29-6.85,15.29-15.29v-38.93C177,112.27,170.15,105.42,161.71,105.42z"/>
</g>
</svg>
