<?xml version="1.0" encoding="utf-8"?>
<!-- Generator: Adobe Illustrator 24.0.2, SVG Export Plug-In . SVG Version: 6.00 Build 0)  -->
<svg version="1.1" id="Layer_1" xmlns="http://www.w3.org/2000/svg" xmlns:xlink="http://www.w3.org/1999/xlink" x="0px" y="0px"
	 viewBox="0 0 200 200" style="enable-background:new 0 0 200 200;" xml:space="preserve">
<style type="text/css">
	.st0{fill:#FFFFFF;}
</style>
<path class="st0" d="M181.23,92.39c0,3.6-2.92,6.52-6.52,6.52h-57.03c-3.6,0-6.52-2.92-6.52-6.52c0-3.6,2.92-6.52,6.52-6.52h57.03
	C178.31,85.87,181.23,88.79,181.23,92.39z M117.68,72.84h57.03c3.6,0,6.52-2.92,6.52-6.52c0-3.6-2.92-6.52-6.52-6.52h-57.03
	c-3.6,0-6.52,2.92-6.52,6.52C111.16,69.92,114.08,72.84,117.68,72.84z M174.71,111.95h-57.03c-3.6,0-6.52,2.92-6.52,6.52
	c0,3.6,2.92,6.52,6.52,6.52h57.03c3.6,0,6.52-2.92,6.52-6.52C181.23,114.86,178.31,111.95,174.71,111.95z M174.71,138.02h-57.03
	c-3.6,0-6.52,2.92-6.52,6.52c0,3.6,2.92,6.52,6.52,6.52h57.03c3.6,0,6.52-2.92,6.52-6.52C181.23,140.94,178.31,138.02,174.71,138.02
	z M174.71,164.09h-57.03c-3.6,0-6.52,2.92-6.52,6.52c0,3.6,2.92,6.52,6.52,6.52h57.03c3.6,0,6.52-2.92,6.52-6.52
	C181.23,167.01,178.31,164.09,174.71,164.09z M33.92,117.16c-3.59,0-6.52-2.92-6.52-6.52V79.36c0-3.59,2.92-6.52,6.52-6.52h57.69
	c3.6,0,6.52-2.92,6.52-6.52c0-3.6-2.92-6.52-6.52-6.52H33.92c-10.78,0-19.55,8.77-19.55,19.55v31.29c0,8.5,5.45,15.75,13.04,18.44
	v41.53c0,3.6,2.92,6.52,6.52,6.52s6.52-2.92,6.52-6.52v-46.93C40.44,120.08,37.52,117.16,33.92,117.16z M59.99,117.16
	c-3.6,0-6.52,2.92-6.52,6.52v46.93c0,3.6,2.92,6.52,6.52,6.52c3.6,0,6.52-2.92,6.52-6.52v-46.93
	C66.51,120.08,63.59,117.16,59.99,117.16z M27.4,34.05c0-10.78,8.77-19.55,19.55-19.55s19.55,8.77,19.55,19.55
	s-8.77,19.55-19.55,19.55S27.4,44.84,27.4,34.05z M40.44,34.05c0,3.59,2.92,6.52,6.52,6.52s6.52-2.92,6.52-6.52
	s-2.92-6.52-6.52-6.52S40.44,30.46,40.44,34.05z M91.93,85.87c-3.6,0-6.52,2.92-6.52,6.52c0,3.6,2.92,6.52,6.52,6.52
	s6.52-2.92,6.52-6.52C98.45,88.79,95.53,85.87,91.93,85.87z M91.93,111.95c-3.6,0-6.52,2.92-6.52,6.52c0,3.6,2.92,6.52,6.52,6.52
	s6.52-2.92,6.52-6.52C98.45,114.86,95.53,111.95,91.93,111.95z M91.93,138.02c-3.6,0-6.52,2.92-6.52,6.52c0,3.6,2.92,6.52,6.52,6.52
	s6.52-2.92,6.52-6.52C98.45,140.94,95.53,138.02,91.93,138.02z M91.93,164.09c-3.6,0-6.52,2.92-6.52,6.52c0,3.6,2.92,6.52,6.52,6.52
	s6.52-2.92,6.52-6.52C98.45,167.01,95.53,164.09,91.93,164.09z"/>
</svg>
