<?xml version="1.0" encoding="utf-8"?>
<!-- Generator: Adobe Illustrator 24.0.2, SVG Export Plug-In . SVG Version: 6.00 Build 0)  -->
<svg version="1.1" id="Layer_1" xmlns="http://www.w3.org/2000/svg" xmlns:xlink="http://www.w3.org/1999/xlink" x="0px" y="0px"
	 viewBox="0 0 200 200" style="enable-background:new 0 0 200 200;" xml:space="preserve">
<style type="text/css">
	.st0{fill:#FFFFFF;}
</style>
<g>
	<path class="st0" d="M173.65,96.67v5.55c0,9.18-7.47,16.65-16.65,16.65h-2.8c-0.74,0-1.4,0.46-1.7,1.18l-0.03,0.09
		c-1.17,2.84-4.41,4.19-7.25,3.02c-2.84-1.17-4.19-4.41-3.02-7.25l0.04-0.09c2.02-4.89,6.71-8.05,11.96-8.05h2.8
		c3.06,0,5.55-2.49,5.55-5.55v-5.55c0-3.06-2.49-5.55-5.55-5.55h-2.8c-5.25,0-9.94-3.16-11.96-8.04L142.2,83
		c-2.03-4.89-0.94-10.44,2.77-14.15l1.98-1.98c2.16-2.16,2.16-5.69,0-7.85l-3.93-3.92c-1.05-1.05-2.44-1.63-3.92-1.63
		c-1.48,0-2.88,0.58-3.92,1.63l-1.98,1.98c-3.71,3.71-9.26,4.8-14.15,2.77l-0.08-0.03c-4.89-2.02-8.04-6.71-8.04-11.96v-2.8
		c0-3.06-2.49-5.55-5.55-5.55h-5.55c-3.06,0-5.55,2.49-5.55,5.55v2.8c0,5.25-3.16,9.94-8.04,11.96l-0.07,0.03
		c-4.9,2.03-10.45,0.95-14.16-2.76l-1.98-1.98c-1.05-1.05-2.44-1.63-3.92-1.63c-1.48,0-2.88,0.58-3.92,1.63l-3.93,3.93
		c-2.16,2.16-2.16,5.69,0,7.85l1.98,1.98c3.71,3.71,4.8,9.26,2.77,14.15l-0.03,0.08c-2.02,4.88-6.71,8.04-11.96,8.04h-2.8
		c-3.06,0-5.55,2.49-5.55,5.55v5.55c0,3.06,2.49,5.55,5.55,5.55h2.8c5.25,0,9.94,3.16,11.96,8.04l0.04,0.1
		c2.02,4.87,0.94,10.42-2.77,14.13l-1.98,1.98c-1.05,1.05-1.63,2.44-1.63,3.93c0,1.48,0.58,2.88,1.63,3.92l3.93,3.93
		c2.16,2.16,5.69,2.17,7.85,0l1.98-1.98c3.71-3.71,9.26-4.79,14.14-2.77l0.07,0.03c4.9,2.03,8.06,6.72,8.06,11.97v2.8
		c0,3.06,2.49,5.55,5.55,5.55h5.55c3.06,0,5.55-2.49,5.55-5.55v-2.8c0-5.25,3.16-9.94,8.04-11.96l0.09-0.04
		c4.88-2.02,10.43-0.94,14.14,2.77l1.98,1.98c2.17,2.17,5.69,2.17,7.85,0l3.92-3.92c2.17-2.17,5.68-2.17,7.85,0
		c2.17,2.17,2.17,5.68,0,7.85l-3.92,3.93c-6.49,6.49-17.06,6.49-23.55,0l-1.98-1.98c-0.52-0.52-1.32-0.66-2.04-0.36l-0.12,0.05
		c-0.7,0.29-1.16,0.96-1.16,1.69v2.8c0,9.18-7.47,16.65-16.65,16.65h-5.55c-9.18,0-16.65-7.47-16.65-16.65v-2.8
		c0-0.74-0.46-1.4-1.18-1.7l-0.1-0.04c-0.72-0.3-1.52-0.16-2.04,0.36l-1.98,1.98c-6.49,6.49-17.06,6.49-23.55,0l-3.93-3.93
		c-3.15-3.15-4.88-7.33-4.88-11.78c0-4.45,1.73-8.63,4.88-11.78l1.98-1.98c0.52-0.52,0.66-1.32,0.36-2.04l-0.05-0.11
		c-0.29-0.71-0.96-1.17-1.69-1.17h-2.8c-9.18,0-16.65-7.47-16.65-16.65v-5.55c0-9.18,7.47-16.65,16.65-16.65h2.8
		c0.74,0,1.4-0.46,1.7-1.18l0.04-0.1c0.3-0.72,0.16-1.52-0.36-2.04l-1.98-1.98c-6.49-6.49-6.49-17.06,0-23.55l3.92-3.92
		c3.15-3.15,7.33-4.88,11.78-4.88c4.45,0,8.63,1.73,11.78,4.88l1.98,1.98c0.52,0.52,1.32,0.66,2.04,0.36l0.1-0.04
		c0.72-0.3,1.18-0.96,1.18-1.7v-2.8c0-9.18,7.47-16.65,16.65-16.65h5.55c9.18,0,16.65,7.47,16.65,16.65v2.8
		c0,0.74,0.46,1.4,1.18,1.7l0.11,0.05c0.71,0.29,1.51,0.15,2.03-0.37l1.98-1.98c3.15-3.15,7.33-4.88,11.78-4.88
		c4.45,0,8.63,1.73,11.78,4.88l3.92,3.92c6.49,6.49,6.49,17.06,0,23.55l-1.98,1.98c-0.52,0.52-0.66,1.32-0.36,2.04l0.04,0.1
		c0.3,0.72,0.96,1.18,1.7,1.18h2.8C166.18,80.02,173.65,87.49,173.65,96.67z M88.47,96.98c-2.11-2.89-3.37-6.45-3.37-10.3
		c0-9.64,7.84-17.49,17.49-17.49s17.49,7.84,17.49,17.49c0,3.85-1.25,7.41-3.37,10.3c6.31,3.81,11.03,10.14,12.61,17.72
		c0.57,2.74-0.12,5.55-1.88,7.72c-1.76,2.16-4.36,3.39-7.14,3.39H84.88c-2.78,0-5.38-1.24-7.14-3.39c-1.76-2.17-2.45-4.98-1.88-7.72
		C77.44,107.11,82.16,100.79,88.47,96.98z M96.21,86.68c0,3.52,2.86,6.38,6.38,6.38s6.38-2.86,6.38-6.38s-2.86-6.38-6.38-6.38
		S96.21,83.16,96.21,86.68z M87.38,114.71h30.43c-2.29-6.23-8.29-10.55-15.07-10.55h-0.29C95.67,104.17,89.66,108.48,87.38,114.71z"
		/>
</g>
</svg>
