<?xml version="1.0" encoding="utf-8"?>
<!-- Generator: Adobe Illustrator 24.0.2, SVG Export Plug-In . SVG Version: 6.00 Build 0)  -->
<svg version="1.1" id="Layer_1" xmlns="http://www.w3.org/2000/svg" xmlns:xlink="http://www.w3.org/1999/xlink" x="0px" y="0px"
	 viewBox="0 0 200 200" style="enable-background:new 0 0 200 200;" xml:space="preserve">
<style type="text/css">
	.st0{fill:#FFFFFF;}
</style>
<g>
	<path class="st0" d="M74.1,85.17c-10.3,0-18.68,8.38-18.68,18.68c0,4.1,1.33,7.9,3.58,10.98c-6.83,4.12-11.94,10.94-13.64,19.13
		c-0.63,3.01,0.13,6.11,2.06,8.49c1.93,2.38,4.8,3.74,7.87,3.74h37.94c3.07,0,5.93-1.36,7.87-3.74c1.94-2.38,2.69-5.48,2.06-8.49
		c-1.72-8.28-6.92-15.16-13.86-19.26c2.19-3.06,3.49-6.81,3.49-10.85C92.78,93.56,84.4,85.17,74.1,85.17z M74.1,97.63
		c3.43,0,6.23,2.79,6.23,6.23c0,3.43-2.79,6.23-6.23,6.23c-3.43,0-6.23-2.79-6.23-6.23C67.87,100.42,70.66,97.63,74.1,97.63z
		 M90.13,133.75H58.37c2.51-6.33,8.73-10.68,15.72-10.68h0.31C81.4,123.07,87.62,127.42,90.13,133.75z"/>
	<path class="st0" d="M173.43,139.36c-3.44,0-6.23,2.79-6.23,6.23c0,6.87-5.59,12.46-12.46,12.46H45.14
		c-6.87,0-12.46-5.59-12.46-12.46V78.32c0-6.87,5.59-12.46,12.46-12.46h17.44c3.44,0,6.23-2.79,6.23-6.23
		c0-3.44-2.79-6.23-6.23-6.23H45.14c-13.74,0-24.91,11.18-24.91,24.91v67.26c0,13.74,11.18,24.91,24.91,24.91h109.61
		c13.74,0,24.91-11.18,24.91-24.91C179.66,142.14,176.87,139.36,173.43,139.36z"/>
	<path class="st0" d="M154.75,53.41h-36.12V34.73c0-3.44-2.79-6.23-6.23-6.23H87.49c-3.44,0-6.23,2.79-6.23,6.23v24.91
		c0,10.3,8.38,18.68,18.68,18.68c8.12,0,15.04-5.21,17.61-12.46h37.19c6.87,0,12.46,5.59,12.46,12.46v36.12
		c0,3.44,2.79,6.23,6.23,6.23s6.23-2.79,6.23-6.23V78.32C179.66,64.59,168.48,53.41,154.75,53.41z M106.17,59.64
		c0,3.43-2.79,6.23-6.23,6.23s-6.23-2.79-6.23-6.23V40.96h12.46V59.64z"/>
	<path class="st0" d="M120.49,131.92h15.57c3.44,0,6.23-2.79,6.23-6.23c0-3.44-2.79-6.23-6.23-6.23h-15.57
		c-3.44,0-6.23,2.79-6.23,6.23C114.27,129.13,117.05,131.92,120.49,131.92z"/>
	<path class="st0" d="M120.49,110.12h28.03c3.44,0,6.23-2.79,6.23-6.23s-2.79-6.23-6.23-6.23h-28.03c-3.44,0-6.23,2.79-6.23,6.23
		S117.05,110.12,120.49,110.12z"/>
</g>
</svg>
