<?xml version="1.0" encoding="utf-8"?>
<!-- Generator: Adobe Illustrator 24.0.2, SVG Export Plug-In . SVG Version: 6.00 Build 0)  -->
<svg version="1.1" id="Layer_1" xmlns="http://www.w3.org/2000/svg" xmlns:xlink="http://www.w3.org/1999/xlink" x="0px" y="0px"
	 viewBox="0 0 200 200" style="enable-background:new 0 0 200 200;" xml:space="preserve">
<style type="text/css">
	.st0{fill:#FFFFFF;}
</style>
<g>
	<g>
		<g>
			<path class="st0" d="M149.41,24.5H45.59C32.58,24.5,22,35.08,22,48.09v5.9c0,3.26,2.64,5.9,5.9,5.9s5.9-2.64,5.9-5.9v-5.9
				c0-6.5,5.29-11.8,11.8-11.8h103.81c6.5,0,11.8,5.29,11.8,11.8v103.81c0,6.5-5.29,11.8-11.8,11.8H45.59
				c-6.5,0-11.8-5.29-11.8-11.8v-5.9c0-3.26-2.64-5.9-5.9-5.9s-5.9,2.64-5.9,5.9v5.9c0,13.01,10.58,23.59,23.59,23.59h103.81
				c13.01,0,23.59-10.58,23.59-23.59V48.09C173,35.08,162.42,24.5,149.41,24.5z"/>
		</g>
	</g>
	<g>
		<g>
			<path class="st0" d="M35.56,104.21c-0.01-0.01-0.03-0.03-0.04-0.04c-2.3-2.3-2.3-6.04,0.01-8.35l21.91-22.04
				c2.3-2.31,2.29-6.04-0.02-8.34c-2.31-2.3-6.04-2.29-8.34,0.02l-21.9,22.02c-6.89,6.89-6.9,18.1-0.02,25l21.89,22.31
				c1.15,1.18,2.68,1.77,4.21,1.77c1.49,0,2.98-0.56,4.13-1.69c2.33-2.28,2.36-6.02,0.08-8.34L35.56,104.21z"/>
		</g>
	</g>
	<g>
		<g>
			<path class="st0" d="M120.21,94.1H57.39c-3.26,0-5.9,2.64-5.9,5.9s2.64,5.9,5.9,5.9h62.82c3.26,0,5.9-2.64,5.9-5.9
				C126.11,96.74,123.47,94.1,120.21,94.1z"/>
		</g>
	</g>
</g>
</svg>
