<?xml version="1.0" encoding="utf-8"?>
<!-- Generator: Adobe Illustrator 24.0.2, SVG Export Plug-In . SVG Version: 6.00 Build 0)  -->
<svg version="1.1" id="Layer_1" xmlns="http://www.w3.org/2000/svg" xmlns:xlink="http://www.w3.org/1999/xlink" x="0px" y="0px"
	 viewBox="0 0 200 200" style="enable-background:new 0 0 200 200;" xml:space="preserve">
<style type="text/css">
	.st0{fill:#FFFFFF;}
</style>
<g>
	<path class="st0" d="M88.53,136.3c2.18,2.15,2.2,5.67,0.05,7.85l-9.88,10.01c-0.01,0.01-0.03,0.03-0.04,0.04
		c-3.3,3.28-7.64,4.92-11.97,4.92c-4.34,0-8.67-1.64-11.97-4.92l-10.08-10.01c-2.17-2.16-2.19-5.67-0.03-7.85
		c2.16-2.18,5.67-2.19,7.85-0.03l8.68,8.61v-25.77c0-3.06,2.48-5.55,5.55-5.55c3.07,0,5.55,2.49,5.55,5.55v25.74l8.44-8.55
		C82.83,134.17,86.35,134.15,88.53,136.3z M114.68,63.93c1.46,0,2.92-0.57,4.01-1.71l7.92-8.28v25.81c0,3.07,2.48,5.55,5.55,5.55
		c3.07,0,5.55-2.48,5.55-5.55V54.1l7.96,8.16c2.14,2.19,5.66,2.24,7.85,0.09c2.19-2.14,2.24-5.66,0.09-7.85l-9.77-10.01
		c-3.14-3.22-7.33-4.99-11.79-4.99c-4.46,0-8.65,1.77-11.79,4.99c-0.01,0.01-0.03,0.03-0.04,0.04l-9.57,10.01
		c-2.12,2.21-2.04,5.73,0.17,7.85C111.92,63.42,113.3,63.93,114.68,63.93z M167.64,166.37c-2.14,2.62-5.29,4.13-8.65,4.13h-54.2
		c-3.38,0-6.54-1.5-8.67-4.13c-2.15-2.64-2.98-6.06-2.29-9.4c1.79-8.64,6.54-16.5,13.37-22.13c2.59-2.13,5.43-3.91,8.44-5.3
		c-3.36-3.82-5.4-8.81-5.4-14.28c0-11.94,9.71-21.65,21.65-21.65c11.94,0,21.65,9.71,21.65,21.65c0,5.46-2.04,10.45-5.39,14.26
		c2.69,1.25,5.25,2.81,7.65,4.69c2.41,1.89,2.84,5.38,0.95,7.79c-1.1,1.4-2.73,2.13-4.37,2.13c-1.2,0-2.4-0.38-3.42-1.18
		c-4.91-3.85-10.81-5.88-17.06-5.88c-13.09,0-24.53,9.32-27.19,22.15c-0.03,0.12,0.06,0.17,0.06,0.17c0,0,0.01,0,0.03,0h54.2
		c0,0,0.07-0.06,0.09-0.15c-0.08-0.37-0.12-0.75-0.12-1.14v-0.07c0-2.85,2.15-5.23,4.98-5.52c2.83-0.29,5.42,1.61,6,4.39
		C170.65,160.26,169.8,163.71,167.64,166.37z M121.34,115.26c0,5.81,4.73,10.55,10.55,10.55c5.82,0,10.55-4.73,10.55-10.55
		c0-5.82-4.73-10.55-10.55-10.55C126.07,104.72,121.34,109.45,121.34,115.26z M93.49,105.28h-54.2c-3.38,0-6.54-1.5-8.67-4.13
		c-2.15-2.64-2.98-6.06-2.29-9.4c1.79-8.64,6.54-16.5,13.37-22.13c2.59-2.13,5.43-3.91,8.44-5.3c-3.36-3.82-5.4-8.81-5.4-14.28
		c0-11.94,9.71-21.65,21.65-21.65c11.94,0,21.65,9.71,21.65,21.65c0,5.47-2.04,10.47-5.4,14.28c3.01,1.39,5.86,3.16,8.44,5.3
		c6.69,5.52,11.39,13.18,13.26,21.61c0.04,0.15,0.08,0.29,0.11,0.44c0.7,3.36-0.15,6.81-2.31,9.47
		C100,103.78,96.85,105.28,93.49,105.28z M55.85,50.04c0,5.81,4.73,10.55,10.55,10.55c5.82,0,10.55-4.73,10.55-10.55
		c0-5.82-4.73-10.55-10.55-10.55C60.58,39.5,55.85,44.23,55.85,50.04z M93.59,94.02c0,0,0-0.01,0-0.01
		c-2.66-12.84-14.1-22.16-27.19-22.16S41.86,81.17,39.2,94.01c-0.03,0.12,0.06,0.16,0.06,0.17c0,0,0.01,0,0.03,0h54.2
		C93.5,94.18,93.57,94.12,93.59,94.02z"/>
</g>
</svg>
