<?xml version="1.0" encoding="utf-8"?>
<!-- Generator: Adobe Illustrator 24.0.2, SVG Export Plug-In . SVG Version: 6.00 Build 0)  -->
<svg version="1.1" id="Layer_1" xmlns="http://www.w3.org/2000/svg" xmlns:xlink="http://www.w3.org/1999/xlink" x="0px" y="0px"
	 viewBox="0 0 200 200" style="enable-background:new 0 0 200 200;" xml:space="preserve">
<style type="text/css">
	.st0{fill:#FFFFFF;}
</style>
<g>
	<g>
		<g>
			<path class="st0" d="M58.44,64.64c0.96,0.7,2.08,1.04,3.2,1.04c1.68,0,3.33-0.77,4.4-2.24c1.77-2.43,1.23-5.82-1.2-7.59
				c-2.43-1.77-5.82-1.23-7.59,1.2C55.48,59.48,56.02,62.88,58.44,64.64z"/>
			<path class="st0" d="M50.84,83.28c0.56,0.18,1.12,0.27,1.68,0.27c2.29,0,4.42-1.46,5.17-3.75c0.93-2.86-0.63-5.92-3.49-6.85
				c-2.85-0.93-5.92,0.64-6.85,3.49C46.43,79.29,47.99,82.35,50.84,83.28z"/>
			<path class="st0" d="M75.83,51.5c1.11,0,2.23-0.34,3.2-1.04c0,0,0,0,0,0c2.43-1.77,2.96-5.16,1.2-7.59
				c-1.77-2.43-5.16-2.96-7.59-1.2c-2.43,1.77-2.96,5.16-1.2,7.59C72.5,50.73,74.15,51.5,75.83,51.5z"/>
			<path class="st0" d="M44.07,99.01c0.04,0.17,0.08,0.34,0.13,0.52c0.05,0.17,0.11,0.34,0.18,0.5c0.07,0.16,0.14,0.33,0.23,0.48
				c0.08,0.15,0.17,0.31,0.27,0.46c0.1,0.15,0.2,0.29,0.32,0.43c0.11,0.14,0.23,0.27,0.36,0.4c0.12,0.12,0.26,0.25,0.4,0.36
				c0.14,0.11,0.28,0.22,0.43,0.32c0.15,0.1,0.3,0.19,0.46,0.27c0.15,0.08,0.32,0.16,0.48,0.23c0.16,0.07,0.33,0.13,0.5,0.18
				c0.17,0.05,0.35,0.1,0.52,0.13c0.17,0.04,0.35,0.06,0.53,0.08c0.18,0.02,0.36,0.03,0.54,0.03s0.36-0.01,0.54-0.03
				c0.17-0.02,0.35-0.04,0.53-0.08c0.17-0.04,0.35-0.08,0.52-0.13c0.17-0.05,0.34-0.11,0.5-0.18c0.16-0.07,0.33-0.14,0.48-0.23
				c0.16-0.08,0.31-0.17,0.46-0.27c0.15-0.1,0.29-0.21,0.43-0.32c0.14-0.11,0.27-0.23,0.4-0.36c0.12-0.12,0.25-0.26,0.36-0.4
				c0.11-0.14,0.22-0.28,0.32-0.43c0.1-0.15,0.19-0.3,0.27-0.46c0.08-0.15,0.16-0.32,0.23-0.48c0.07-0.16,0.13-0.33,0.18-0.5
				c0.05-0.17,0.1-0.34,0.13-0.52c0.04-0.17,0.06-0.35,0.08-0.53c0.02-0.18,0.03-0.36,0.03-0.54s-0.01-0.36-0.03-0.54
				c-0.02-0.17-0.04-0.35-0.08-0.53c-0.04-0.17-0.08-0.35-0.13-0.52c-0.05-0.17-0.11-0.34-0.18-0.5c-0.07-0.16-0.14-0.33-0.23-0.48
				c-0.08-0.15-0.17-0.31-0.27-0.46c-0.1-0.15-0.21-0.29-0.32-0.43c-0.11-0.14-0.23-0.27-0.36-0.4c-0.12-0.12-0.26-0.25-0.4-0.36
				c-0.14-0.11-0.28-0.22-0.43-0.32c-0.15-0.1-0.3-0.19-0.46-0.27c-0.15-0.08-0.32-0.16-0.48-0.23c-0.16-0.07-0.33-0.13-0.5-0.18
				c-0.17-0.05-0.34-0.1-0.52-0.13c-0.17-0.04-0.35-0.06-0.53-0.08c-0.36-0.04-0.71-0.04-1.07,0c-0.17,0.02-0.35,0.04-0.53,0.08
				c-0.17,0.04-0.35,0.08-0.52,0.13c-0.17,0.05-0.34,0.11-0.5,0.18c-0.16,0.07-0.33,0.14-0.48,0.23c-0.15,0.08-0.31,0.17-0.46,0.27
				c-0.15,0.1-0.29,0.2-0.43,0.32c-0.14,0.11-0.27,0.23-0.4,0.36c-0.12,0.12-0.25,0.26-0.36,0.4c-0.11,0.14-0.22,0.28-0.32,0.43
				c-0.1,0.15-0.19,0.3-0.27,0.46c-0.08,0.15-0.16,0.32-0.23,0.48c-0.07,0.16-0.13,0.33-0.18,0.5c-0.05,0.17-0.1,0.35-0.13,0.52
				c-0.04,0.17-0.06,0.35-0.08,0.53c-0.02,0.18-0.03,0.36-0.03,0.54c0,0.18,0.01,0.36,0.03,0.54
				C44.01,98.66,44.03,98.84,44.07,99.01z"/>
			<path class="st0" d="M93.7,42.38c0.56,0,1.12-0.08,1.68-0.27c2.86-0.93,4.42-3.99,3.49-6.85c-0.93-2.85-3.99-4.41-6.85-3.49
				c-2.86,0.93-4.42,3.99-3.49,6.85C89.28,40.93,91.4,42.38,93.7,42.38z"/>
			<path class="st0" d="M92.05,82.48v1.01c0,10.52,8.51,19.08,18.97,19.08h6.84c4.49,0,8.15,3.64,8.15,8.12v3.55
				c0,4.5-3.65,8.17-8.15,8.17h-11.12c-3.1,0-5.73-2.74-5.73-5.98c0-3-2.43-5.43-5.43-5.43c-3,0-5.43,2.43-5.43,5.43
				c0,9.29,7.44,16.84,16.6,16.84h1.34v5.71c0,3,2.43,5.43,5.43,5.43c3,0,5.43-2.43,5.43-5.43v-5.74c9.98-0.56,17.93-8.87,17.93-19
				v-3.55c0-10.47-8.53-18.99-19.01-18.99h-6.84c-4.47,0-8.1-3.68-8.1-8.21v-1.01c0-4.5,3.64-8.17,8.1-8.17h6.47
				c3.2,0,5.8,2.56,5.8,5.71c0,3,2.43,5.43,5.43,5.43s5.43-2.43,5.43-5.43c0-8.65-6.7-15.77-15.21-16.51v-6.32
				c0-3-2.43-5.43-5.43-5.43c-3,0-5.43,2.43-5.43,5.43v6.48C99.01,65.1,92.05,72.99,92.05,82.48z"/>
			<path class="st0" d="M176.46,112.61c-2.85-0.93-5.92,0.64-6.85,3.49c-0.93,2.86,0.63,5.92,3.49,6.85
				c0.56,0.18,1.12,0.27,1.68,0.27c2.29,0,4.42-1.46,5.16-3.75C180.87,116.61,179.31,113.54,176.46,112.61z"/>
			<path class="st0" d="M119.19,161.54c0-0.03-0.01-0.06-0.01-0.09c-0.02-0.14-0.04-0.28-0.06-0.42c-0.12-0.6-0.33-1.17-0.63-1.68
				c-0.05-0.08-0.1-0.16-0.15-0.24c-0.03-0.05-0.07-0.1-0.11-0.16c-0.07-0.1-0.14-0.2-0.22-0.29c-0.03-0.03-0.06-0.07-0.08-0.1
				c-0.09-0.1-0.18-0.21-0.27-0.3c-0.02-0.02-0.04-0.04-0.06-0.06c-0.1-0.09-0.2-0.19-0.3-0.27c-0.04-0.03-0.07-0.06-0.11-0.09
				c-0.09-0.08-0.19-0.15-0.29-0.22c-0.05-0.04-0.1-0.07-0.15-0.1c-0.08-0.05-0.16-0.1-0.25-0.15c-0.51-0.3-1.07-0.51-1.67-0.63
				c-0.14-0.03-0.28-0.05-0.42-0.06c-0.2-0.02-0.4-0.04-0.61-0.04c-20.55,0-39.62-10.9-50.18-28.24l12.42-0.02
				c3,0,5.43-2.44,5.43-5.44c0-3-2.44-5.43-5.43-5.43c0,0-0.01,0-0.01,0l-15.89,0.02c-0.02,0-0.04,0-0.05,0
				c-4.3,0-8.33,1.66-11.34,4.68c-3.09,3.09-4.78,7.23-4.76,11.65v15.71c0,3,2.43,5.43,5.43,5.43s5.43-2.43,5.43-5.43v-14.7
				c5.38,8.58,12.58,15.91,21.15,21.47c11.26,7.3,24.33,11.16,37.8,11.16c0,0,0.01,0,0.01,0c0.18,0,0.35-0.01,0.53-0.03
				c0.02,0,0.05-0.01,0.07-0.01c0.14-0.02,0.29-0.04,0.43-0.07c0.6-0.12,1.16-0.33,1.66-0.62c0.09-0.05,0.17-0.1,0.26-0.16
				c0.05-0.03,0.1-0.06,0.14-0.1c0.1-0.07,0.21-0.15,0.3-0.23c0.03-0.03,0.06-0.05,0.09-0.08c0.11-0.09,0.21-0.18,0.31-0.28
				c0.02-0.02,0.04-0.04,0.06-0.06c0.1-0.1,0.19-0.2,0.28-0.31c0.03-0.03,0.05-0.06,0.08-0.1c0.08-0.1,0.15-0.2,0.22-0.3
				c0.03-0.05,0.07-0.1,0.1-0.14c0.06-0.09,0.11-0.18,0.16-0.27c0.29-0.51,0.51-1.07,0.62-1.67c0.03-0.14,0.05-0.28,0.06-0.42
				c0-0.03,0.01-0.06,0.01-0.09c0.02-0.17,0.03-0.35,0.03-0.52c0,0,0,0,0,0c0,0,0,0,0-0.01
				C119.22,161.89,119.21,161.72,119.19,161.54z"/>
			<path class="st0" d="M177.91,40.89c-3,0-5.43,2.43-5.43,5.43v14.7c-5.38-8.58-12.58-15.91-21.15-21.47
				c-11.26-7.3-24.33-11.16-37.81-11.16c-0.21,0-0.41,0.01-0.61,0.04c-0.14,0.02-0.29,0.04-0.43,0.07
				c-0.59,0.12-1.15,0.33-1.66,0.62c-0.09,0.05-0.18,0.11-0.27,0.16c-0.19,0.12-0.36,0.25-0.53,0.4c-0.11,0.09-0.22,0.19-0.32,0.29
				c-0.02,0.02-0.03,0.03-0.05,0.05c-0.1,0.1-0.2,0.21-0.29,0.32c-0.03,0.03-0.05,0.06-0.07,0.09c-0.08,0.1-0.16,0.2-0.23,0.31
				c-0.03,0.04-0.06,0.09-0.09,0.14c-0.06,0.09-0.11,0.18-0.16,0.27c-0.29,0.51-0.51,1.07-0.62,1.66c-0.03,0.14-0.05,0.28-0.06,0.42
				c0,0.03-0.01,0.05-0.01,0.08c-0.02,0.18-0.03,0.36-0.03,0.53c0,0.18,0.01,0.35,0.03,0.53c0,0.03,0.01,0.05,0.01,0.08
				c0.02,0.14,0.04,0.28,0.06,0.42c0.12,0.6,0.33,1.16,0.62,1.67c0.05,0.09,0.1,0.18,0.16,0.27c0.03,0.05,0.06,0.09,0.09,0.14
				c0.07,0.1,0.15,0.21,0.23,0.3c0.03,0.03,0.05,0.06,0.08,0.09c0.09,0.11,0.19,0.21,0.28,0.31c0.02,0.02,0.03,0.03,0.05,0.05
				c0.1,0.1,0.2,0.19,0.31,0.28c0.03,0.03,0.06,0.05,0.09,0.08c0.1,0.08,0.2,0.16,0.31,0.23c0.05,0.03,0.09,0.06,0.14,0.1
				c0.08,0.05,0.17,0.11,0.26,0.16c0.51,0.29,1.07,0.51,1.67,0.62c0.14,0.03,0.29,0.05,0.43,0.07c0.03,0,0.05,0.01,0.08,0.01
				c0.18,0.02,0.35,0.03,0.53,0.03c20.55,0,39.62,10.9,50.18,28.24l-12.42,0.02c-3,0-5.43,2.44-5.43,5.44c0,3,2.44,5.43,5.43,5.43
				c0,0,0.01,0,0.01,0l15.89-0.02c0.02,0,0.04,0,0.05,0c4.3,0,8.33-1.66,11.34-4.68c3.09-3.09,4.78-7.23,4.76-11.65V46.33
				C183.34,43.33,180.91,40.89,177.91,40.89z"/>
			<path class="st0" d="M168.86,131.25c-2.43-1.77-5.82-1.23-7.59,1.2c-1.77,2.43-1.23,5.82,1.2,7.59c0.96,0.7,2.08,1.04,3.19,1.04
				c1.68,0,3.33-0.78,4.4-2.24C171.82,136.42,171.28,133.02,168.86,131.25z"/>
			<path class="st0" d="M183.23,96.89c-0.04-0.17-0.08-0.35-0.13-0.52c-0.05-0.17-0.11-0.34-0.18-0.5
				c-0.07-0.16-0.14-0.33-0.23-0.48c-0.08-0.16-0.17-0.31-0.27-0.46c-0.1-0.15-0.21-0.29-0.32-0.43c-0.11-0.14-0.23-0.27-0.36-0.4
				c-0.12-0.12-0.26-0.25-0.4-0.36c-0.14-0.11-0.28-0.22-0.43-0.32c-0.15-0.1-0.3-0.19-0.46-0.27c-0.15-0.08-0.32-0.16-0.48-0.23
				s-0.33-0.13-0.5-0.18c-0.17-0.05-0.35-0.1-0.52-0.13c-0.17-0.04-0.35-0.06-0.53-0.08c-0.36-0.04-0.71-0.04-1.07,0
				c-0.17,0.02-0.35,0.04-0.53,0.08c-0.17,0.04-0.34,0.08-0.52,0.13c-0.17,0.05-0.34,0.11-0.5,0.18s-0.33,0.14-0.48,0.23
				c-0.15,0.08-0.31,0.17-0.46,0.27c-0.15,0.1-0.29,0.2-0.43,0.32c-0.14,0.11-0.27,0.23-0.4,0.36s-0.25,0.26-0.36,0.4
				c-0.11,0.14-0.22,0.28-0.32,0.43c-0.1,0.15-0.19,0.3-0.27,0.46c-0.08,0.15-0.16,0.32-0.23,0.48c-0.07,0.16-0.13,0.33-0.18,0.5
				c-0.05,0.17-0.1,0.35-0.13,0.52c-0.04,0.17-0.06,0.35-0.08,0.53c-0.02,0.18-0.03,0.36-0.03,0.54c0,0.18,0.01,0.36,0.03,0.54
				c0.02,0.17,0.04,0.35,0.08,0.53c0.04,0.17,0.08,0.34,0.13,0.52c0.05,0.17,0.11,0.34,0.18,0.5s0.14,0.33,0.23,0.48
				c0.08,0.15,0.17,0.31,0.27,0.46c0.1,0.15,0.21,0.29,0.32,0.43c0.11,0.14,0.23,0.27,0.36,0.4c0.12,0.12,0.26,0.25,0.4,0.36
				c0.14,0.11,0.28,0.22,0.43,0.32c0.15,0.1,0.3,0.19,0.46,0.27c0.15,0.08,0.32,0.16,0.48,0.23c0.16,0.07,0.33,0.13,0.5,0.18
				c0.17,0.05,0.35,0.1,0.52,0.13c0.17,0.04,0.35,0.06,0.53,0.08c0.18,0.02,0.36,0.03,0.54,0.03s0.36-0.01,0.54-0.03
				c0.17-0.02,0.35-0.04,0.53-0.08c0.17-0.04,0.35-0.08,0.52-0.13c0.17-0.05,0.34-0.11,0.5-0.18s0.33-0.14,0.48-0.23
				c0.15-0.08,0.31-0.17,0.46-0.27c0.15-0.1,0.29-0.21,0.43-0.32c0.14-0.11,0.27-0.23,0.4-0.36c0.12-0.12,0.25-0.26,0.36-0.4
				c0.11-0.14,0.22-0.28,0.32-0.43c0.1-0.15,0.19-0.3,0.27-0.46c0.08-0.15,0.16-0.32,0.23-0.48c0.07-0.16,0.13-0.33,0.18-0.5
				c0.05-0.17,0.1-0.35,0.13-0.52c0.04-0.17,0.06-0.35,0.08-0.53c0.02-0.18,0.03-0.36,0.03-0.54s-0.01-0.36-0.03-0.54
				C183.3,97.24,183.27,97.06,183.23,96.89z"/>
			<path class="st0" d="M148.28,145.43c-2.43,1.77-2.96,5.16-1.2,7.59c1.06,1.46,2.72,2.24,4.4,2.24c1.11,0,2.23-0.34,3.19-1.04
				c2.43-1.77,2.96-5.16,1.2-7.59C154.1,144.2,150.7,143.67,148.28,145.43z"/>
			<path class="st0" d="M131.93,153.78c-2.86,0.93-4.42,3.99-3.49,6.85c0.75,2.3,2.88,3.75,5.17,3.76c0.56,0,1.12-0.09,1.68-0.27
				c2.86-0.93,4.42-3.99,3.49-6.85C137.85,154.41,134.78,152.85,131.93,153.78z"/>
		</g>
	</g>
</g>
</svg>
