<?xml version="1.0" encoding="utf-8"?>
<!-- Generator: Adobe Illustrator 24.0.2, SVG Export Plug-In . SVG Version: 6.00 Build 0)  -->
<svg version="1.1" id="Layer_1" xmlns="http://www.w3.org/2000/svg" xmlns:xlink="http://www.w3.org/1999/xlink" x="0px" y="0px"
	 viewBox="0 0 200 200" style="enable-background:new 0 0 200 200;" xml:space="preserve">
<style type="text/css">
	.st0{fill:#FFFFFF;}
	.st1{fill:#FF7272;}
</style>
<g>
	<g>
		<g>
			<circle class="st0" cx="59.64" cy="122.96" r="6.76"/>
			<circle class="st0" cx="59.64" cy="156.75" r="6.76"/>
			<path class="st0" d="M46.81,146.61h25.68c3.73,0,6.76-3.03,6.76-6.76c0-3.73-3.03-6.76-6.76-6.76H46.81
				c-3.73,0-6.76,3.03-6.76,6.76C40.05,143.59,43.07,146.61,46.81,146.61z"/>
			<path class="st0" d="M46.81,66.88h6.08v6.08c0,3.73,3.03,6.76,6.76,6.76c3.73,0,6.76-3.03,6.76-6.76v-6.08h6.08
				c3.73,0,6.76-3.03,6.76-6.76c0-3.73-3.03-6.76-6.76-6.76H66.4v-6.08c0-3.73-3.03-6.76-6.76-6.76c-3.73,0-6.76,3.03-6.76,6.76
				v6.08h-6.08c-3.73,0-6.76,3.03-6.76,6.76C40.05,63.86,43.07,66.88,46.81,66.88z"/>
			<path class="st0" d="M179.24,132.42c3.73,0,6.76-3.03,6.76-6.76V40.53c0-14.9-12.12-27.03-27.03-27.03H40.05
				c-14.9,0-27.03,12.12-27.03,27.03v118.92c0,14.9,12.12,27.03,27.03,27.03h118.92c14.9,0,27.03-12.12,27.03-27.03
				c0-3.73-3.03-6.76-6.76-6.76c-3.73,0-6.76,3.03-6.76,6.76c0,7.45-6.06,13.51-13.51,13.51h-52.7v-65.88h66.22v18.58
				C172.49,129.4,175.51,132.42,179.24,132.42z M92.75,172.97h-52.7c-7.45,0-13.51-6.06-13.51-13.51v-52.37h66.22V172.97z
				 M92.75,93.57H26.53V40.53c0-7.45,6.06-13.51,13.51-13.51h52.7V93.57z M106.27,93.57V27.01h52.7c7.45,0,13.51,6.06,13.51,13.51
				v53.04H106.27z"/>
			<path class="st0" d="M154.11,125.16c-2.64-2.64-6.92-2.64-9.56,0l-5.19,5.19l-5.19-5.19c-2.64-2.64-6.92-2.64-9.56,0
				c-2.64,2.64-2.64,6.92,0,9.56l5.19,5.19l-5.19,5.19c-2.64,2.64-2.64,6.92,0,9.56c1.32,1.32,3.05,1.98,4.78,1.98
				c1.73,0,3.46-0.66,4.78-1.98l5.19-5.19l5.19,5.19c1.32,1.32,3.05,1.98,4.78,1.98s3.46-0.66,4.78-1.98c2.64-2.64,2.64-6.92,0-9.56
				l-5.19-5.19l5.19-5.19C156.75,132.08,156.75,127.8,154.11,125.16z"/>
			<path class="st0" d="M152.22,53.37h-25.68c-3.73,0-6.76,3.03-6.76,6.76c0,3.73,3.03,6.76,6.76,6.76h25.68
				c3.73,0,6.76-3.03,6.76-6.76C158.97,56.39,155.95,53.37,152.22,53.37z"/>
		</g>
	</g>
</g>
</svg>
