<?xml version="1.0" encoding="utf-8"?>
<!-- Generator: Adobe Illustrator 24.0.2, SVG Export Plug-In . SVG Version: 6.00 Build 0)  -->
<svg version="1.1" id="Layer_1" xmlns="http://www.w3.org/2000/svg" xmlns:xlink="http://www.w3.org/1999/xlink" x="0px" y="0px"
	 viewBox="0 0 200 200" style="enable-background:new 0 0 200 200;" xml:space="preserve">
<style type="text/css">
	.st0{fill:#FFFFFF;}
</style>
<g>
	<path class="st0" d="M38.78,22.5H28.51c-6.31,0-11.43,5.12-11.43,11.43v10.27c0,6.31,5.12,11.43,11.43,11.43h10.27
		c6.31,0,11.43-5.12,11.43-11.43V33.93C50.22,27.62,45.1,22.5,38.78,22.5z"/>
	<path class="st0" d="M167.52,22.5H78.71c-8.42,0-15.24,6.82-15.24,15.24v2.65c0,8.42,6.82,15.24,15.24,15.24h88.81
		c8.42,0,15.24-6.82,15.24-15.24v-2.65C182.77,29.32,175.94,22.5,167.52,22.5z"/>
	<path class="st0" d="M38.78,82.15H28.51c-6.31,0-11.43,5.12-11.43,11.43v10.27c0,6.31,5.12,11.43,11.43,11.43h10.27
		c6.31,0,11.43-5.12,11.43-11.43V93.58C50.22,87.27,45.1,82.15,38.78,82.15z"/>
	<path class="st0" d="M167.52,82.15H78.71c-8.42,0-15.24,6.82-15.24,15.24v2.65c0,8.42,6.82,15.24,15.24,15.24h88.81
		c8.42,0,15.24-6.82,15.24-15.24v-2.65C182.77,88.97,175.94,82.15,167.52,82.15z"/>
	<path class="st0" d="M38.78,141.79H28.51c-6.31,0-11.43,5.12-11.43,11.43v10.27c0,6.31,5.12,11.43,11.43,11.43h10.27
		c6.31,0,11.43-5.12,11.43-11.43v-10.27C50.22,146.91,45.1,141.79,38.78,141.79z"/>
	<path class="st0" d="M167.52,141.79H78.71c-8.42,0-15.24,6.82-15.24,15.24v2.65c0,8.42,6.82,15.24,15.24,15.24h88.81
		c8.42,0,15.24-6.82,15.24-15.24v-2.65C182.77,148.62,175.94,141.79,167.52,141.79z"/>
</g>
</svg>
