<?xml version="1.0" encoding="utf-8"?>
<!-- Generator: Adobe Illustrator 24.0.2, SVG Export Plug-In . SVG Version: 6.00 Build 0)  -->
<svg version="1.1" id="Layer_1" xmlns="http://www.w3.org/2000/svg" xmlns:xlink="http://www.w3.org/1999/xlink" x="0px" y="0px"
	 viewBox="0 0 200 200" style="enable-background:new 0 0 200 200;" xml:space="preserve">
<style type="text/css">
	.st0{fill:#FFFFFF;}
</style>
<path class="st0" d="M79.07,96.59v1.36c0,11.39,9.26,20.65,20.65,20.65s20.65-9.26,20.65-20.65v-1.36c0-3,2.43-5.43,5.43-5.43
	c3,0,5.43,2.43,5.43,5.43v1.36c0,17.38-14.14,31.52-31.52,31.52S68.2,115.33,68.2,97.95v-1.36c0-3,2.43-5.43,5.43-5.43
	S79.07,93.59,79.07,96.59z M163.84,90.61c-3,0-5.43,2.43-5.43,5.43v4.62c0,3-2.44,5.43-5.43,5.43h-2.74
	c-5.14,0-9.73,3.09-11.71,7.87l-0.04,0.09c-1.98,4.78-0.92,10.22,2.71,13.85l1.93,1.93c1.03,1.03,1.59,2.39,1.59,3.84
	c0,1.45-0.56,2.82-1.59,3.84l-3.84,3.84c-1.03,1.03-2.39,1.59-3.84,1.59s-2.82-0.56-3.84-1.59l-1.94-1.94
	c-3.63-3.63-9.07-4.69-13.85-2.71l-0.08,0.03c-4.78,1.98-7.87,6.57-7.87,11.71v2.74c0,3-2.44,5.43-5.43,5.43H97
	c-3,0-5.43-2.44-5.43-5.43v-2.74c0-5.14-3.09-9.73-7.88-11.71l-0.07-0.03c-4.78-1.99-10.22-0.92-13.85,2.71l-1.93,1.94
	c-1.03,1.03-2.39,1.59-3.84,1.59c-1.45,0-2.82-0.57-3.84-1.59l-3.84-3.84c-1.03-1.03-1.59-2.39-1.59-3.84
	c0-1.45,0.57-2.82,1.59-3.84l1.93-1.94c3.63-3.63,4.69-9.06,2.71-13.85l-0.04-0.08c-1.98-4.78-6.57-7.87-11.71-7.87h-2.74
	c-3,0-5.43-2.44-5.43-5.43v-4.62c0-3-2.43-5.43-5.43-5.43c-3,0-5.43,2.43-5.43,5.43v4.62c0,8.99,7.31,16.3,16.3,16.3h2.74
	c0.72,0,1.37,0.45,1.66,1.14l0.05,0.12c0.29,0.7,0.15,1.49-0.36,2l-1.93,1.93c-3.08,3.08-4.77,7.17-4.77,11.53s1.69,8.45,4.77,11.53
	l3.84,3.84c3.08,3.08,7.17,4.77,11.53,4.77c4.35,0,8.45-1.69,11.53-4.77l1.93-1.93c0.51-0.51,1.29-0.65,2-0.36l0.1,0.04
	c0.7,0.29,1.15,0.94,1.15,1.66v2.74c0,8.99,7.31,16.3,16.3,16.3h5.43c8.99,0,16.3-7.31,16.3-16.3v-2.74c0-0.72,0.45-1.37,1.15-1.66
	l0.11-0.04c0.7-0.29,1.49-0.15,2,0.36l1.94,1.93c3.08,3.08,7.17,4.77,11.53,4.77c4.35,0,8.45-1.69,11.53-4.77l3.84-3.84
	c3.08-3.08,4.77-7.17,4.77-11.53s-1.7-8.45-4.77-11.53l-1.93-1.93c-0.51-0.51-0.65-1.29-0.36-2l0.04-0.1
	c0.29-0.7,0.94-1.15,1.66-1.15h2.74c8.99,0,16.3-7.31,16.3-16.3v-4.62C169.27,93.04,166.84,90.61,163.84,90.61z M32.2,78.87
	c-1.73-2.12-2.4-4.88-1.84-7.56C31.93,63.77,36.67,57.5,43,53.78c-1.75-2.6-2.78-5.73-2.78-9.09c0-8.99,7.31-16.3,16.3-16.3
	c8.99,0,16.3,7.31,16.3,16.3c0,3.36-1.02,6.49-2.78,9.09c3.15,1.85,5.91,4.33,8.07,7.28c2.17-2.96,4.92-5.44,8.07-7.28
	c-1.75-2.6-2.78-5.73-2.78-9.09c0-8.99,7.31-16.3,16.3-16.3s16.3,7.31,16.3,16.3c0,3.36-1.02,6.49-2.78,9.09
	c3.15,1.85,5.91,4.33,8.07,7.28c2.17-2.96,4.92-5.44,8.07-7.28c-1.75-2.6-2.78-5.73-2.78-9.09c0-8.99,7.31-16.3,16.3-16.3
	c8.99,0,16.3,7.31,16.3,16.3c0,8.89-7.16,16.14-16.02,16.29c-0.05,0-0.1,0.01-0.14,0.01h-0.28c-6.63,0-12.51,4.23-14.75,10.32h30.41
	c0.42-2.06,2.03-3.77,4.22-4.23c2.94-0.61,5.81,1.28,6.43,4.22c0.56,2.68-0.11,5.44-1.84,7.56c-1.72,2.11-4.27,3.32-6.99,3.32H39.18
	C36.46,82.19,33.92,80.98,32.2,78.87z M84.83,71.32h29.78C112.37,65.23,106.5,61,99.86,61h-0.28C92.94,61,87.07,65.23,84.83,71.32z
	 M137.49,44.7c0,3,2.44,5.43,5.43,5.43c3,0,5.43-2.44,5.43-5.43c0-3-2.44-5.43-5.43-5.43C139.92,39.26,137.49,41.7,137.49,44.7z
	 M94.29,44.7c0,3,2.44,5.43,5.43,5.43s5.43-2.44,5.43-5.43c0-3-2.44-5.43-5.43-5.43S94.29,41.7,94.29,44.7z M51.09,44.7
	c0,3,2.44,5.43,5.43,5.43c3,0,5.43-2.44,5.43-5.43c0-3-2.44-5.43-5.43-5.43C53.52,39.26,51.09,41.7,51.09,44.7z M41.63,71.32h29.79
	C69.18,65.22,63.3,61,56.66,61h-0.28C49.75,61,43.86,65.22,41.63,71.32z"/>
</svg>
