<?xml version="1.0" encoding="utf-8"?>
<!-- Generator: Adobe Illustrator 24.0.2, SVG Export Plug-In . SVG Version: 6.00 Build 0)  -->
<svg version="1.1" id="Layer_1" xmlns="http://www.w3.org/2000/svg" xmlns:xlink="http://www.w3.org/1999/xlink" x="0px" y="0px"
	 viewBox="0 0 200 200" style="enable-background:new 0 0 200 200;" xml:space="preserve">
<style type="text/css">
	.st0{fill:#FFFFFF;}
</style>
<path class="st0" d="M183.84,146.6H159.1c-0.25,0-0.5-0.01-0.75,0H93.91l34.96-28.38l19.02,15.4c3.07,2.48,7.57,2.01,10.05-1.06
	c2.48-3.07,2.01-7.57-1.06-10.05l-16.67-13.5l48.13-39.07c2.35-1.91,3.24-5.09,2.23-7.94c-1.01-2.85-3.71-4.76-6.74-4.76H73.76
	c-3.03,0-5.73,1.91-6.74,4.76c-1.01,2.86-0.11,6.04,2.24,7.94l48.25,39.07L71.23,146.6H51.96V35.09c0-15.77-12.83-28.59-28.59-28.59
	h-8.22C11.2,6.5,8,9.7,8,13.65c0,3.95,3.2,7.15,7.15,7.15h8.22c7.88,0,14.3,6.41,14.3,14.3v112.62c-0.58,0.2-1.17,0.41-1.74,0.66
	c-5.25,2.28-9.31,6.47-11.41,11.79c-2.11,5.33-2.01,11.15,0.27,16.41c2.28,5.25,6.47,9.31,11.79,11.41
	c2.55,1.01,5.22,1.51,7.88,1.51c2.9,0,5.79-0.59,8.52-1.78c5.25-2.28,9.31-6.47,11.41-11.79c1.92-4.86,2-10.14,0.27-15.03h9.09
	c0,0,0.01,0,0.01,0c0,0,0.01,0,0.01,0h64.84c-1.82,5.13-1.64,10.66,0.54,15.68c2.28,5.25,6.47,9.31,11.79,11.41
	c2.55,1.01,5.22,1.51,7.88,1.51c2.89,0,5.79-0.59,8.52-1.78c5.25-2.28,9.31-6.47,11.41-11.79c1.92-4.86,2-10.14,0.27-15.03h4.81
	c3.95,0,7.15-3.2,7.15-7.15C190.99,149.8,187.79,146.6,183.84,146.6z M93.95,71.55h69.75l-34.83,28.27L93.95,71.55z M51.1,170.67
	c-0.7,1.77-2.05,3.17-3.8,3.93c-1.75,0.76-3.69,0.79-5.47,0.09c-1.77-0.7-3.17-2.05-3.93-3.8c-0.76-1.75-0.79-3.69-0.09-5.47
	c0.7-1.77,2.05-3.17,3.8-3.93c0.91-0.4,1.88-0.59,2.84-0.59c0.89,0,1.78,0.17,2.63,0.5c1.78,0.7,3.17,2.05,3.93,3.8
	C51.77,166.96,51.8,168.9,51.1,170.67z M161.45,161.4c1.77,0.7,3.17,2.05,3.93,3.8c0.76,1.75,0.79,3.69,0.09,5.47
	c-0.7,1.77-2.05,3.17-3.8,3.93s-3.69,0.79-5.47,0.09c-1.77-0.7-3.17-2.05-3.93-3.8c-0.76-1.75-0.79-3.69-0.09-5.47
	c0.7-1.77,2.05-3.17,3.8-3.93c0.91-0.4,1.88-0.59,2.84-0.59C159.71,160.9,160.6,161.07,161.45,161.4z"/>
</svg>
