<?xml version="1.0" encoding="utf-8"?>
<!-- Generator: Adobe Illustrator 24.0.2, SVG Export Plug-In . SVG Version: 6.00 Build 0)  -->
<svg version="1.1" id="Layer_1" xmlns="http://www.w3.org/2000/svg" xmlns:xlink="http://www.w3.org/1999/xlink" x="0px" y="0px"
	 viewBox="0 0 200 200" style="enable-background:new 0 0 200 200;" xml:space="preserve">
<style type="text/css">
	.st0{fill:#FFFFFF;}
</style>
<path class="st0" d="M57.8,48.85c2.61,2.61,2.61,6.84,0,9.45c-1.3,1.3-3.01,1.96-4.72,1.96s-3.42-0.65-4.72-1.96L27.36,37.31V47.9
	c0,3.69-2.99,6.68-6.68,6.68S14,51.59,14,47.9V34.54c0-11.05,8.99-20.04,20.04-20.04H47.4c3.69,0,6.68,2.99,6.68,6.68
	s-2.99,6.68-6.68,6.68H36.81L57.8,48.85z M48.35,141.7l-20.99,20.99V152.1c0-3.69-2.99-6.68-6.68-6.68S14,148.41,14,152.1v13.36
	c0,11.05,8.99,20.04,20.04,20.04H47.4c3.69,0,6.68-2.99,6.68-6.68s-2.99-6.68-6.68-6.68H36.81l20.99-20.99
	c2.61-2.61,2.61-6.84,0-9.45C55.19,139.09,50.96,139.09,48.35,141.7z M164.96,14.5H151.6c-3.69,0-6.68,2.99-6.68,6.68
	s2.99,6.68,6.68,6.68h10.59L141.2,48.85c-2.61,2.61-2.61,6.84,0,9.45c1.3,1.3,3.01,1.96,4.72,1.96s3.42-0.65,4.72-1.96l20.99-20.99
	V47.9c0,3.69,2.99,6.68,6.68,6.68S185,51.59,185,47.9V34.54C185,23.49,176.01,14.5,164.96,14.5z M178.32,145.42
	c-3.69,0-6.68,2.99-6.68,6.68v10.59l-20.99-20.99c-2.61-2.61-6.84-2.61-9.45,0c-2.61,2.61-2.61,6.84,0,9.45l20.99,20.99H151.6
	c-3.69,0-6.68,2.99-6.68,6.68s2.99,6.68,6.68,6.68h13.36c11.05,0,20.04-8.99,20.04-20.04V152.1
	C185,148.41,182.01,145.42,178.32,145.42z M113.19,60.92H86.47c-11.05,0-20.04,8.99-20.04,20.04v36.74
	c0,8.71,5.58,16.14,13.36,18.89v42.22c0,3.69,2.99,6.68,6.68,6.68s6.68-2.99,6.68-6.68v-47.76c0-3.69-2.99-6.68-6.68-6.68
	c-3.68,0-6.68-3-6.68-6.68V80.96c0-3.68,3-6.68,6.68-6.68h26.72c3.68,0,6.68,3,6.68,6.68v36.74c0,3.68-3,6.68-6.68,6.68
	c-3.69,0-6.68,2.99-6.68,6.68v47.76c0,3.69,2.99,6.68,6.68,6.68s6.68-2.99,6.68-6.68V136.6c7.78-2.76,13.36-10.19,13.36-18.89V80.96
	C133.23,69.91,124.24,60.92,113.19,60.92z M79.79,34.54c0-11.05,8.99-20.04,20.04-20.04s20.04,8.99,20.04,20.04
	s-8.99,20.04-20.04,20.04S79.79,45.59,79.79,34.54z M93.15,34.54c0,3.68,3,6.68,6.68,6.68s6.68-3,6.68-6.68s-3-6.68-6.68-6.68
	S93.15,30.86,93.15,34.54z"/>
</svg>
