<?xml version="1.0" encoding="utf-8"?>
<!-- Generator: Adobe Illustrator 24.0.2, SVG Export Plug-In . SVG Version: 6.00 Build 0)  -->
<svg version="1.1" id="Layer_1" xmlns="http://www.w3.org/2000/svg" xmlns:xlink="http://www.w3.org/1999/xlink" x="0px" y="0px"
	 viewBox="0 0 200 200" style="enable-background:new 0 0 200 200;" xml:space="preserve">
<style type="text/css">
	.st0{fill:#FFFFFF;}
</style>
<g>
	<g>
		<g>
			<path class="st0" d="M88.9,159.23c-37.09-1.56-66.15-31.9-66.15-69.06c0-38.11,31.01-69.12,69.12-69.12
				c32.14,0,60.51,22.73,67.47,54.05c0.87,3.92,4.76,6.4,8.68,5.52c3.92-0.87,6.4-4.76,5.52-8.68
				c-4.06-18.29-14.35-34.89-28.97-46.77C129.73,13.13,111.01,6.5,91.86,6.5c-22.35,0-43.36,8.7-59.16,24.51
				C16.9,46.81,8.19,67.82,8.19,90.17c0,21.72,8.29,42.31,23.34,57.97c15.01,15.61,35.16,24.71,56.75,25.62
				c0.1,0,0.21,0.01,0.31,0.01c3.88,0,7.1-3.06,7.26-6.97C96.03,162.79,92.91,159.4,88.9,159.23z"/>
			<path class="st0" d="M91.86,35.66c-4.02,0-7.28,3.26-7.28,7.28v44.22l-23.51,23.51c-2.84,2.84-2.84,7.45,0,10.29
				c1.42,1.42,3.28,2.13,5.14,2.13s3.72-0.71,5.14-2.13l25.64-25.64c1.36-1.36,2.13-3.22,2.13-5.14V42.93
				C99.14,38.91,95.88,35.66,91.86,35.66z"/>
			<path class="st0" d="M179.48,96.84c-7.59-3.1-17.52-4.8-27.96-4.8s-20.37,1.71-27.96,4.8c-13.02,5.32-14.97,12.95-14.97,17.03
				v56.75c0,4.08,1.94,11.71,14.97,17.03c7.59,3.1,17.52,4.8,27.96,4.8s20.37-1.71,27.96-4.8c13.02-5.32,14.97-12.95,14.97-17.03
				v-56.75C194.45,109.79,192.51,102.16,179.48,96.84z M179.9,170.39c-1.2,2.24-10.98,7.51-28.38,7.51s-27.17-5.27-28.38-7.51
				v-11.66c0.14,0.06,0.27,0.12,0.42,0.18c7.59,3.1,17.52,4.8,27.96,4.8c2.52,0,5.04-0.1,7.49-0.3c4.01-0.32,6.99-3.83,6.67-7.83
				s-3.82-6.99-7.83-6.67c-2.07,0.17-4.2,0.25-6.33,0.25c-17.4,0-27.18-5.27-28.38-7.51v-10.93c0.14,0.06,0.27,0.12,0.42,0.18
				c7.59,3.1,17.52,4.8,27.96,4.8c2.52,0,5.04-0.1,7.49-0.3c4.01-0.32,6.99-3.83,6.67-7.83c-0.32-4.01-3.82-6.99-7.83-6.67
				c-2.07,0.17-4.2,0.25-6.33,0.25c-16.82,0-26.52-4.93-28.23-7.28c1.71-2.35,11.41-7.28,28.23-7.28c17.39,0,27.17,5.27,28.38,7.51
				V170.39z"/>
		</g>
	</g>
</g>
</svg>
