<?xml version="1.0" encoding="utf-8"?>
<!-- Generator: Adobe Illustrator 24.0.2, SVG Export Plug-In . SVG Version: 6.00 Build 0)  -->
<svg version="1.1" id="Layer_1" xmlns="http://www.w3.org/2000/svg" xmlns:xlink="http://www.w3.org/1999/xlink" x="0px" y="0px"
	 viewBox="0 0 200 200" style="enable-background:new 0 0 200 200;" xml:space="preserve">
<style type="text/css">
	.st0{fill:#FFFFFF;}
</style>
<path class="st0" d="M174.85,96.46c0,3.15-2.55,5.7-5.7,5.7h-49.84c-3.15,0-5.7-2.55-5.7-5.7s2.55-5.7,5.7-5.7h49.84
	C172.3,90.76,174.85,93.31,174.85,96.46z M119.31,79.37h49.84c3.15,0,5.7-2.55,5.7-5.7s-2.55-5.7-5.7-5.7h-49.84
	c-3.15,0-5.7,2.55-5.7,5.7S116.17,79.37,119.31,79.37z M169.15,113.54h-49.84c-3.15,0-5.7,2.55-5.7,5.7s2.55,5.7,5.7,5.7h49.84
	c3.15,0,5.7-2.55,5.7-5.7S172.3,113.54,169.15,113.54z M169.15,136.33h-49.84c-3.15,0-5.7,2.55-5.7,5.7s2.55,5.7,5.7,5.7h49.84
	c3.15,0,5.7-2.55,5.7-5.7S172.3,136.33,169.15,136.33z M169.15,159.11h-49.84c-3.15,0-5.7,2.55-5.7,5.7s2.55,5.7,5.7,5.7h49.84
	c3.15,0,5.7-2.55,5.7-5.7S172.3,159.11,169.15,159.11z M46.13,118.1c-3.14,0-5.7-2.56-5.7-5.7V85.07c0-3.14,2.56-5.7,5.7-5.7h50.41
	c3.15,0,5.7-2.55,5.7-5.7s-2.55-5.7-5.7-5.7H46.13c-9.42,0-17.09,7.66-17.09,17.09v27.34c0,7.43,4.76,13.76,11.39,16.11v36.29
	c0,3.15,2.55,5.7,5.7,5.7s5.7-2.55,5.7-5.7V123.8C51.82,120.65,49.27,118.1,46.13,118.1z M68.91,118.1c-3.15,0-5.7,2.55-5.7,5.7
	v41.01c0,3.15,2.55,5.7,5.7,5.7s5.7-2.55,5.7-5.7V123.8C74.6,120.65,72.05,118.1,68.91,118.1z M40.43,45.48
	c0-9.42,7.66-17.09,17.09-17.09S74.6,36.06,74.6,45.48s-7.66,17.09-17.09,17.09S40.43,54.9,40.43,45.48z M51.82,45.48
	c0,3.14,2.56,5.7,5.7,5.7c3.14,0,5.7-2.56,5.7-5.7c0-3.14-2.56-5.7-5.7-5.7C54.38,39.79,51.82,42.34,51.82,45.48z M96.82,90.76
	c-3.15,0-5.7,2.55-5.7,5.7s2.55,5.7,5.7,5.7s5.7-2.55,5.7-5.7S99.96,90.76,96.82,90.76z M96.82,113.54c-3.15,0-5.7,2.55-5.7,5.7
	s2.55,5.7,5.7,5.7s5.7-2.55,5.7-5.7S99.96,113.54,96.82,113.54z M96.82,136.33c-3.15,0-5.7,2.55-5.7,5.7s2.55,5.7,5.7,5.7
	s5.7-2.55,5.7-5.7S99.96,136.33,96.82,136.33z M96.82,159.11c-3.15,0-5.7,2.55-5.7,5.7s2.55,5.7,5.7,5.7s5.7-2.55,5.7-5.7
	S99.96,159.11,96.82,159.11z"/>
</svg>
