<?xml version="1.0" encoding="utf-8"?>
<!-- Generator: Adobe Illustrator 24.0.2, SVG Export Plug-In . SVG Version: 6.00 Build 0)  -->
<svg version="1.1" id="Layer_1" xmlns="http://www.w3.org/2000/svg" xmlns:xlink="http://www.w3.org/1999/xlink" x="0px" y="0px"
	 viewBox="0 0 200 200" style="enable-background:new 0 0 200 200;" xml:space="preserve">
<style type="text/css">
	.st0{fill:#FFFFFF;}
</style>
<g>
	<path class="st0" d="M134.88,68.18c-6.73,0-12.21,5.48-12.21,12.21c0,2.68,0.87,5.16,2.34,7.17c-4.46,2.69-7.8,7.15-8.91,12.5
		c-0.41,1.97,0.08,3.99,1.35,5.55c1.26,1.55,3.14,2.44,5.14,2.44h24.78c2,0,3.88-0.89,5.14-2.44c1.27-1.56,1.76-3.58,1.35-5.55
		c-1.13-5.41-4.52-9.9-9.05-12.58c1.43-2,2.28-4.45,2.28-7.09C147.08,73.65,141.61,68.18,134.88,68.18z M134.88,76.31
		c2.24,0,4.07,1.83,4.07,4.07s-1.83,4.07-4.07,4.07c-2.24,0-4.07-1.83-4.07-4.07S132.63,76.31,134.88,76.31z M145.35,99.91h-20.74
		c1.64-4.13,5.7-6.98,10.27-6.98h0.2C139.65,92.93,143.71,95.78,145.35,99.91z"/>
	<path class="st0" d="M170.07,81.27c3.25,0,5.88-2.63,5.88-5.88V48.03c0-12.97-10.56-23.53-23.53-23.53H48.89
		c-12.97,0-23.53,10.56-23.53,23.53v56.77c0,12.97,10.56,23.53,23.53,23.53h103.53c12.97,0,23.53-10.56,23.53-23.53
		c0-3.25-2.63-5.88-5.88-5.88c-3.25,0-5.88,2.63-5.88,5.88c0,6.49-5.28,11.77-11.77,11.77H48.89c-6.49,0-11.77-5.28-11.77-11.77
		V60.09h127.06v15.29C164.19,78.63,166.82,81.27,170.07,81.27z M37.12,48.32v-0.29c0-6.49,5.28-11.77,11.77-11.77h103.53
		c6.49,0,11.77,5.28,11.77,11.77v0.29H37.12z"/>
	<path class="st0" d="M158.31,139.8H48.27c-1.17,0-2.3,0.35-3.27,0.99l-17.03,11.4c-1.61,1.08-2.58,2.87-2.61,4.81
		c-0.03,1.93,0.9,3.76,2.48,4.88l17.12,12.14c0.99,0.7,2.18,1.08,3.4,1.08h72c3.25,0,5.88-2.63,5.88-5.88s-2.63-5.88-5.88-5.88
		H50.24l-8.63-6.12l8.45-5.66h93.84v17.68c0,3.24,2.62,5.87,5.87,5.88l8.55,0.02c9.73,0,17.65-7.92,17.65-17.65
		C175.95,147.74,168.04,139.8,158.31,139.8z M158.32,163.38l-2.66-0.01v-11.81h2.65c3.24,0,5.88,2.66,5.88,5.93
		C164.19,160.74,161.55,163.38,158.32,163.38z"/>
	<path class="st0" d="M54.77,93.03c-3.25,0-5.88,2.63-5.88,5.88c0,3.25,2.63,5.88,5.88,5.88h32.94c3.25,0,5.88-2.63,5.88-5.88
		c0-3.25-2.63-5.88-5.88-5.88H54.77z"/>
	<path class="st0" d="M110.95,77.74c0-3.25-2.63-5.88-5.88-5.88h-50.3c-3.25,0-5.88,2.63-5.88,5.88c0,3.25,2.63,5.88,5.88,5.88h50.3
		C108.32,83.62,110.95,80.99,110.95,77.74z"/>
</g>
</svg>
