<?xml version="1.0" encoding="utf-8"?>
<!-- Generator: Adobe Illustrator 24.0.2, SVG Export Plug-In . SVG Version: 6.00 Build 0)  -->
<svg version="1.1" id="Layer_1" xmlns="http://www.w3.org/2000/svg" xmlns:xlink="http://www.w3.org/1999/xlink" x="0px" y="0px"
	 viewBox="0 0 200 200" style="enable-background:new 0 0 200 200;" xml:space="preserve">
<style type="text/css">
	.st0{fill:#FFFFFF;}
</style>
<path class="st0" d="M191.4,30.54v76.24c0,3.99-3.24,7.23-7.23,7.23s-7.23-3.24-7.23-7.23V37.77h-69.01v72.27
	c0,3.99-3.24,7.23-7.23,7.23c-0.06,0-0.13-0.01-0.19-0.01c-2.17,0.05-4.34-0.87-5.8-2.69L65.73,78.47c-2.7-3.36-6.73-5.3-11.05-5.3
	h-26.6c-3.98,0-7.23,3.24-7.23,7.23v39.38c0,3.98,3.24,7.23,7.23,7.23c3.99,0,7.23,3.24,7.23,7.23v52.03c0,3.99-3.24,7.23-7.23,7.23
	s-7.23-3.24-7.23-7.23v-46.04c-8.41-2.98-14.45-11.02-14.45-20.44V80.4c0-11.95,9.72-21.68,21.68-21.68h26.6
	c8.72,0,16.85,3.9,22.31,10.7l16.49,20.53V30.54c0-3.99,3.24-7.23,7.23-7.23h35.05v-7.59c0-3.99,3.24-7.23,7.23-7.23
	s7.23,3.24,7.23,7.23v7.59h33.96C188.17,23.31,191.4,26.55,191.4,30.54z M126,66.67h32.88c3.99,0,7.23-3.24,7.23-7.23
	s-3.24-7.23-7.23-7.23H126c-3.99,0-7.23,3.24-7.23,7.23S122.01,66.67,126,66.67z M126,91.97h32.88c3.99,0,7.23-3.24,7.23-7.23
	s-3.24-7.23-7.23-7.23H126c-3.99,0-7.23,3.24-7.23,7.23S122.01,91.97,126,91.97z M126,117.62h14.81c3.99,0,7.23-3.24,7.23-7.23
	s-3.24-7.23-7.23-7.23H126c-3.99,0-7.23,3.24-7.23,7.23S122.01,117.62,126,117.62z M184.18,135.69c-3.99,0-7.23,3.24-7.23,7.23
	c0,3.98-3.24,7.23-7.23,7.23h-54.56c-3.98,0-7.23-3.24-7.23-7.23v-3.97c0-3.99-3.24-7.23-7.23-7.23s-7.23,3.24-7.23,7.23v3.97
	c0,11.95,9.72,21.68,21.68,21.68h20.6v14.45h-13.37c-3.99,0-7.23,3.24-7.23,7.23s3.24,7.23,7.23,7.23h41.55
	c3.99,0,7.23-3.24,7.23-7.23s-3.24-7.23-7.23-7.23h-13.73v-14.45h19.51c11.95,0,21.68-9.72,21.68-21.68
	C191.4,138.92,188.17,135.69,184.18,135.69z M56.99,90.88c-3.99,0-7.23,3.24-7.23,7.23v88.16c0,3.99,3.24,7.23,7.23,7.23
	s7.23-3.24,7.23-7.23V98.11C64.22,94.12,60.98,90.88,56.99,90.88z M20.86,30.18c0-11.95,9.72-21.68,21.68-21.68
	s21.68,9.72,21.68,21.68s-9.72,21.68-21.68,21.68S20.86,42.13,20.86,30.18z M35.31,30.18c0,3.98,3.24,7.23,7.23,7.23
	s7.23-3.24,7.23-7.23s-3.24-7.23-7.23-7.23S35.31,26.2,35.31,30.18z"/>
</svg>
