<?xml version="1.0" encoding="utf-8"?>
<!-- Generator: Adobe Illustrator 24.0.2, SVG Export Plug-In . SVG Version: 6.00 Build 0)  -->
<svg version="1.1" id="Layer_1" xmlns="http://www.w3.org/2000/svg" xmlns:xlink="http://www.w3.org/1999/xlink" x="0px" y="0px"
	 viewBox="0 0 200 200" style="enable-background:new 0 0 200 200;" xml:space="preserve">
<style type="text/css">
	.st0{fill:#FFFFFF;}
</style>
<path class="st0" d="M177.49,159.8c0,3.31-2.68,5.99-5.99,5.99s-5.99-2.68-5.99-5.99c0-3.3-2.69-5.99-5.99-5.99
	s-5.99,2.69-5.99,5.99c0,3.3,2.69,5.99,5.99,5.99c3.31,0,5.99,2.68,5.99,5.99s-2.68,5.99-5.99,5.99c-9.9,0-17.96-8.06-17.96-17.96
	c0-3.95,1.28-7.6,3.45-10.57l-18.91-27.68c-5.92,3.3-12.34,5.38-18.97,6.16v15.26c6.81,2.55,11.67,9.13,11.67,16.82
	c0,3.31-2.68,5.99-5.99,5.99s-5.99-2.68-5.99-5.99c0-3.3-2.69-5.99-5.99-5.99s-5.99,2.69-5.99,5.99c0,3.3,2.69,5.99,5.99,5.99
	c3.31,0,5.99,2.68,5.99,5.99s-2.68,5.99-5.99,5.99c-9.9,0-17.96-8.06-17.96-17.96c0-7.92,5.15-14.65,12.27-17.03v-15.05
	c-6.9-0.8-13.39-2.96-19.19-6.2l-19.27,27.73c2.16,2.96,3.44,6.61,3.44,10.55c0,3.31-2.68,5.99-5.99,5.99s-5.99-2.68-5.99-5.99
	c0-3.3-2.69-5.99-5.99-5.99c-3.3,0-5.99,2.69-5.99,5.99c0,3.3,2.69,5.99,5.99,5.99c3.31,0,5.99,2.68,5.99,5.99s-2.68,5.99-5.99,5.99
	c-9.9,0-17.96-8.06-17.96-17.96c0-9.9,8.06-17.96,17.96-17.96c1.61,0,3.18,0.22,4.66,0.62l19.41-27.94
	c-10.37-9.48-16.89-23.11-16.89-38.23c0-28.55,23.23-51.78,51.78-51.78s51.78,23.23,51.78,51.78c0,5.92-0.99,11.73-2.95,17.26
	c-1.1,3.12-4.52,4.75-7.64,3.65s-4.75-4.52-3.65-7.64c1.5-4.25,2.26-8.71,2.26-13.27c0-21.95-17.86-39.81-39.81-39.81
	S61.35,54.33,61.35,76.28s17.86,39.81,39.81,39.81c8.24,0,16.25-2.61,23.15-7.56c1.31-0.94,2.94-1.31,4.53-1.03
	c1.59,0.28,2.99,1.19,3.9,2.52l22.15,32.42c1.48-0.4,3.04-0.61,4.64-0.61C169.44,141.84,177.49,149.89,177.49,159.8z M87.29,72.56
	c-1.64-2.56-2.59-5.59-2.59-8.85c0-9.08,7.39-16.46,16.46-16.46s16.46,7.39,16.46,16.46c0,3.14-0.88,6.07-2.41,8.57
	c5.46,3.56,9.51,9.21,10.9,15.93c0.57,2.74-0.12,5.56-1.88,7.73c-1.76,2.16-4.36,3.4-7.14,3.4H85.84c-2.78,0-5.38-1.24-7.14-3.4
	c-1.77-2.17-2.45-4.99-1.88-7.73C78.17,81.66,82.05,76.13,87.29,72.56z M113.24,87.36c-2.19-4.31-6.67-7.18-11.65-7.18h-0.26
	c-4.98,0-9.45,2.88-11.65,7.18H113.24z M96.67,63.71c0,2.48,2.01,4.49,4.49,4.49c2.48,0,4.49-2.01,4.49-4.49s-2.01-4.49-4.49-4.49
	C98.69,59.22,96.67,61.24,96.67,63.71z"/>
</svg>
