<?xml version="1.0" encoding="utf-8"?>
<!-- Generator: Adobe Illustrator 24.0.2, SVG Export Plug-In . SVG Version: 6.00 Build 0)  -->
<svg version="1.1" id="Layer_1" xmlns="http://www.w3.org/2000/svg" xmlns:xlink="http://www.w3.org/1999/xlink" x="0px" y="0px"
	 viewBox="0 0 200 200" style="enable-background:new 0 0 200 200;" xml:space="preserve">
<style type="text/css">
	.st0{fill:#FFFFFF;}
</style>
<g>
	<g>
		<g>
			<path class="st0" d="M61.52,158.15h89.21c11.18,0,20.27-9.1,20.27-20.27v-5.07c0-2.8-2.27-5.07-5.07-5.07s-5.07,2.27-5.07,5.07
				v5.07c0,5.59-4.55,10.14-10.14,10.14H61.52c-5.59,0-10.14-4.55-10.14-10.14V48.67c0-5.59,4.55-10.14,10.14-10.14h89.21
				c5.59,0,10.14,4.55,10.14,10.14v5.07c0,2.8,2.27,5.07,5.07,5.07s5.07-2.27,5.07-5.07v-5.07c0-11.18-9.1-20.27-20.27-20.27H61.52
				c-11.18,0-20.27,9.1-20.27,20.27v89.21C41.24,149.06,50.34,158.15,61.52,158.15z"/>
		</g>
	</g>
	<g>
		<g>
			<path class="st0" d="M159.34,89.66c0.01,0.01,0.02,0.02,0.03,0.03c1.98,1.98,1.98,5.19-0.01,7.18l-18.83,18.94
				c-1.97,1.99-1.96,5.19,0.02,7.17c1.99,1.97,5.19,1.96,7.17-0.02l18.82-18.93c5.92-5.92,5.93-15.56,0.02-21.49l-18.81-19.17
				c-0.99-1.01-2.3-1.52-3.62-1.52c-1.28,0-2.56,0.48-3.55,1.45c-2,1.96-2.03,5.17-0.07,7.17L159.34,89.66z"/>
		</g>
	</g>
	<g>
		<g>
			<path class="st0" d="M86.61,98.34h53.98c2.8,0,5.07-2.27,5.07-5.07c0-2.8-2.27-5.07-5.07-5.07H86.61c-2.8,0-5.07,2.27-5.07,5.07
				S83.81,98.34,86.61,98.34z"/>
		</g>
	</g>
</g>
</svg>
