<?xml version="1.0" encoding="utf-8"?>
<!-- Generator: Adobe Illustrator 24.0.2, SVG Export Plug-In . SVG Version: 6.00 Build 0)  -->
<svg version="1.1" id="Layer_1" xmlns="http://www.w3.org/2000/svg" xmlns:xlink="http://www.w3.org/1999/xlink" x="0px" y="0px"
	 viewBox="0 0 200 200" style="enable-background:new 0 0 200 200;" xml:space="preserve">
<style type="text/css">
	.st0{fill:#FFFFFF;}
	.st1{fill:#FF7272;}
</style>
<path class="st0" d="M100.02,105.15c0.61,0.02,1.23,0.04,1.85,0.04c27.28,0,49.47-22.19,49.47-49.47S129.15,6.25,101.87,6.25
	S52.4,28.44,52.4,55.72c0,16.19,7.82,30.59,19.88,39.62c-11.05,3.64-21.42,9.29-30.49,16.76c-16.64,13.68-28.2,32.77-32.57,53.75
	c-1.37,6.57,0.27,13.32,4.5,18.52c4.21,5.17,10.44,8.14,17.11,8.14h68.5c4.02,0,7.28-3.26,7.28-7.28c0-4.02-3.26-7.28-7.28-7.28
	h-68.5c-3.11,0-4.98-1.73-5.82-2.77c-1.45-1.78-2.01-4.11-1.54-6.37C31.02,132.52,63.05,106.01,100.02,105.15L100.02,105.15z
	 M66.95,55.72c0-19.35,15.82-35.08,35.21-34.92c19.25,0.16,34.63,16.05,34.63,35.3c-0.02,19.28-15.66,34.89-34.94,34.88
	C82.56,90.97,66.93,75.01,66.95,55.72L66.95,55.72z M157.17,147.39c0,4.02-3.26,7.28-7.28,7.28c-4.02,0-7.28-3.26-7.28-7.28
	s3.26-7.28,7.28-7.28C153.91,140.12,157.17,143.37,157.17,147.39z M189.21,140.27l-9.51-1.98c-0.58-1.91-1.35-3.77-2.29-5.54
	c0.02-0.03,0.04-0.06,0.06-0.1l5.17-8.36c1.81-2.93,1.32-6.73-1.18-9.1c-2.5-2.37-6.32-2.67-9.15-0.71l-7.78,5.39
	c-1.76-0.94-3.62-1.71-5.53-2.29l-1.98-9.51c-0.7-3.37-3.68-5.79-7.12-5.79s-6.42,2.42-7.12,5.79l-1.98,9.51
	c-1.91,0.58-3.77,1.35-5.53,2.29l-8.26-5.47c-2.88-1.91-6.71-1.52-9.16,0.92s-2.83,6.28-0.92,9.16l5.47,8.26
	c-0.94,1.76-1.71,3.62-2.29,5.53l-9.51,1.98c-3.37,0.7-5.79,3.68-5.79,7.12s2.42,6.42,5.79,7.12l9.51,1.98
	c0.58,1.91,1.35,3.77,2.29,5.53l-5.47,8.26c-1.91,2.88-1.52,6.71,0.92,9.16c2.45,2.45,6.28,2.83,9.16,0.92l8.26-5.47
	c1.76,0.94,3.62,1.71,5.53,2.29l1.98,9.51c0.7,3.37,3.68,5.79,7.12,5.79s6.42-2.42,7.12-5.79l1.98-9.51
	c1.9-0.58,3.76-1.35,5.53-2.29l8.09,5.71c2.84,2,6.7,1.72,9.21-0.68c2.52-2.39,2.99-6.23,1.13-9.17l-5.53-8.72
	c-0.01-0.01-0.01-0.02-0.02-0.03c0.94-1.76,1.71-3.62,2.29-5.54l9.51-1.98c3.37-0.7,5.79-3.68,5.79-7.12
	S192.58,140.97,189.21,140.27L189.21,140.27z M165.79,152.23c-0.31,1.02-0.73,2.02-1.23,2.97c-0.88,1.66-1.42,3.43-1.63,5.23
	c-1.8,0.2-3.58,0.74-5.23,1.63c-0.95,0.51-1.95,0.92-2.97,1.23c-1.79,0.54-3.43,1.42-4.84,2.54c-1.41-1.13-3.05-2-4.84-2.54
	c-1.02-0.31-2.02-0.73-2.97-1.23c-1.65-0.88-3.43-1.42-5.23-1.63c-0.2-1.8-0.74-3.58-1.63-5.23c-0.51-0.95-0.92-1.95-1.23-2.97
	c-0.54-1.79-1.42-3.43-2.54-4.84c1.13-1.41,2-3.05,2.54-4.84c0.31-1.02,0.73-2.02,1.23-2.97c0.88-1.65,1.42-3.43,1.63-5.23
	c1.8-0.2,3.58-0.74,5.23-1.63c0.95-0.51,1.95-0.92,2.97-1.23c1.79-0.54,3.43-1.42,4.84-2.54c1.41,1.13,3.05,2,4.84,2.54
	c1.02,0.31,2.02,0.73,2.97,1.23c1.66,0.88,3.43,1.42,5.23,1.63c0.2,1.8,0.74,3.58,1.63,5.23c0.51,0.95,0.92,1.95,1.23,2.97
	c0.54,1.79,1.42,3.43,2.54,4.84C167.2,148.8,166.33,150.44,165.79,152.23L165.79,152.23z"/>
</svg>
