<?xml version="1.0" encoding="utf-8"?>
<!-- Generator: Adobe Illustrator 24.0.2, SVG Export Plug-In . SVG Version: 6.00 Build 0)  -->
<svg version="1.1" id="Layer_1" xmlns="http://www.w3.org/2000/svg" xmlns:xlink="http://www.w3.org/1999/xlink" x="0px" y="0px"
	 viewBox="0 0 200 200" style="enable-background:new 0 0 200 200;" xml:space="preserve">
<style type="text/css">
	.st0{fill:#FFFFFF;}
	.st1{fill:#FF7272;}
</style>
<g>
	<g>
		<path class="st0" d="M180.1,61.81l-14.93-34.99c-4.23-9.92-13.94-16.33-24.72-16.33H48.83c-10.78,0-20.49,6.41-24.72,16.33
			L9.18,61.81c-0.36,0.83-0.54,1.73-0.54,2.64v8.73c0,9.18,5.53,17.1,13.44,20.59v61.85c0,14.82,12.06,26.88,26.88,26.88h91.38
			c14.82,0,26.88-12.06,26.88-26.88c0-3.71-3.01-6.72-6.72-6.72c-3.71,0-6.72,3.01-6.72,6.72c0,7.41-6.03,13.44-13.44,13.44H48.95
			c-7.41,0-13.44-6.03-13.44-13.44V95.26c4.4-0.87,8.34-3.02,11.42-6.06c0.64,0.63,1.31,1.21,2.02,1.76v43.49
			c0,3.71,3.01,6.72,6.72,6.72h77.94c3.71,0,6.72-3.01,6.72-6.72V90.97c0.71-0.55,1.38-1.13,2.02-1.76
			c3.08,3.03,7.02,5.19,11.42,6.06v26.77c0,3.71,3.01,6.72,6.72,6.72c3.71,0,6.72-3.01,6.72-6.72V93.78
			c7.9-3.5,13.44-11.41,13.44-20.59v-8.73C180.64,63.54,180.45,62.65,180.1,61.81z M40.22,73.18c0,5-4.07,9.07-9.07,9.07
			s-9.07-4.07-9.07-9.07v-2.22h18.14V73.18z M53.65,73.18v-2.22h18.14v2.22c0,5-4.07,9.07-9.07,9.07S53.65,78.19,53.65,73.18z
			 M126.89,127.74h-64.5V95.68c0.11,0,0.22,0.01,0.34,0.01c6.2,0,11.82-2.52,15.89-6.58c4.13,4.07,9.79,6.58,16.02,6.58
			c6.24,0,11.9-2.52,16.02-6.58c4.07,4.07,9.69,6.58,15.89,6.58c0.11,0,0.22-0.01,0.34-0.01V127.74z M85.23,72.85v-1.88h18.81v1.88
			c0,5.19-4.22,9.41-9.41,9.41S85.23,78.03,85.23,72.85z M135.62,73.18c0,5-4.07,9.07-9.07,9.07s-9.07-4.07-9.07-9.07v-2.22h18.14
			V73.18z M25.61,57.53L36.47,32.1c2.12-4.96,6.97-8.16,12.36-8.16h91.62c5.39,0,10.24,3.2,12.36,8.16l10.85,25.43H25.61z
			 M167.2,73.18c0,5-4.07,9.07-9.07,9.07s-9.07-4.07-9.07-9.07v-2.22h18.14V73.18z"/>
	</g>
</g>
</svg>
