<?xml version="1.0" encoding="utf-8"?>
<!-- Generator: Adobe Illustrator 24.0.2, SVG Export Plug-In . SVG Version: 6.00 Build 0)  -->
<svg version="1.1" id="Layer_1" xmlns="http://www.w3.org/2000/svg" xmlns:xlink="http://www.w3.org/1999/xlink" x="0px" y="0px"
	 viewBox="0 0 200 200" style="enable-background:new 0 0 200 200;" xml:space="preserve">
<style type="text/css">
	.st0{fill:#FFFFFF;}
</style>
<g>
	<g>
		<g>
			<path class="st0" d="M177.26,150.16c-0.62-3-3.56-4.93-6.57-4.3c-3,0.63-4.93,3.56-4.3,6.57c0.36,1.73-0.07,3.5-1.18,4.86
				c-0.64,0.79-2.07,2.11-4.44,2.11h-25.06c-3.07,0-5.55,2.49-5.55,5.55s2.49,5.55,5.55,5.55h25.06c5.09,0,9.84-2.26,13.05-6.21
				C177.05,160.33,178.31,155.18,177.26,150.16z"/>
			<path class="st0" d="M112.2,104.1c18.24,1.68,34.83,11.45,45.16,26.86c1.71,2.55,5.16,3.23,7.7,1.52
				c2.55-1.71,3.23-5.16,1.52-7.7c-9.11-13.58-22.34-23.46-37.42-28.42c9.19-6.89,15.15-17.87,15.15-30.22
				c0-20.81-16.93-37.75-37.75-37.75S68.82,45.33,68.82,66.14c0,12.35,5.97,23.34,15.17,30.23c-8.43,2.77-16.34,7.09-23.26,12.78
				c-12.69,10.44-21.52,25-24.85,41.01c-1.04,5.01,0.21,10.16,3.43,14.13c3.21,3.95,7.97,6.21,13.05,6.21h24.23
				c3.07,0,5.55-2.49,5.55-5.55s-2.49-5.55-5.55-5.55H52.36c-2.37,0-3.8-1.32-4.44-2.11c-1.11-1.36-1.54-3.13-1.18-4.86
				c5.44-26.11,27.47-45.57,53.62-48.26l-10.6,48.21c-0.41,1.85,0.16,3.78,1.5,5.12l11.1,11.1c1.04,1.04,2.45,1.63,3.93,1.63
				c1.47,0,2.88-0.59,3.93-1.63l11.1-11.1c1.34-1.34,1.9-3.27,1.5-5.12L112.2,104.1z M79.92,66.14c0-14.69,11.95-26.64,26.64-26.64
				s26.64,11.95,26.64,26.64c0,14.25-11.24,25.92-25.32,26.61c-0.44-0.01-0.88-0.01-1.32-0.01c-0.43,0-0.87,0.01-1.3,0.01
				C91.18,92.07,79.92,80.4,79.92,66.14z M106.29,156.82l-5.03-5.03l5.03-22.88l5.03,22.88L106.29,156.82z"/>
		</g>
	</g>
</g>
</svg>
