<?xml version="1.0" encoding="utf-8"?>
<!-- Generator: Adobe Illustrator 24.0.2, SVG Export Plug-In . SVG Version: 6.00 Build 0)  -->
<svg version="1.1" id="Layer_1" xmlns="http://www.w3.org/2000/svg" xmlns:xlink="http://www.w3.org/1999/xlink" x="0px" y="0px"
	 viewBox="0 0 200 200" style="enable-background:new 0 0 200 200;" xml:space="preserve">
<style type="text/css">
	.st0{fill:#FFFFFF;}
	.st1{fill:#FF7272;}
</style>
<g>
	<g>
		<path class="st0" d="M181.43,51.45c-1.33-1.64-3.32-2.58-5.43-2.58h-2.52l-36.11-36.11c-2.73-2.73-7.17-2.73-9.9,0l-15.18,15.18
			L97.11,12.76c-2.73-2.73-7.17-2.73-9.9,0L51.1,48.87h-1.92l-0.52-4.77l-0.02-0.15C46.16,25,29.88,10.71,10.77,10.71
			c-3.87,0-7,3.13-7,7s3.13,7,7,7c12.08,0,22.38,9.01,23.98,20.98l8.32,76.46c-7.28,3.3-12.35,10.63-12.35,19.13
			c0,0.06,0.01,0.12,0.01,0.18c0,0.06-0.01,0.12-0.01,0.18c0,11.58,9.42,21,21,21h2.86c-0.71,2.09-1.11,4.32-1.11,6.65
			c0,11.39,9.27,20.65,20.65,20.65s20.65-9.27,20.65-20.65c0-2.33-0.39-4.56-1.11-6.65h30.22c-0.71,2.09-1.11,4.32-1.11,6.65
			c0,11.39,9.27,20.65,20.65,20.65c11.39,0,20.65-9.27,20.65-20.65c0-11.39-9.27-20.65-20.65-20.65H51.73c-3.86,0-7-3.14-7-7
			c0-0.06-0.01-0.12-0.01-0.18c0-0.06,0.01-0.12,0.01-0.18c0-3.86,3.14-7,7-7h89.38c12.43,0,23.83-7.69,29.06-19.59
			c1.55-3.54-0.06-7.67-3.6-9.22c-3.54-1.55-7.67,0.06-9.22,3.6c-2.94,6.71-9.47,11.22-16.24,11.22H56.96l-6.25-57.41h116.68
			l-3.43,16.42c-0.79,3.79,1.64,7.49,5.42,8.28c0.48,0.1,0.96,0.15,1.44,0.15c3.25,0,6.16-2.27,6.85-5.57l5.18-24.85
			C183.28,55.23,182.76,53.09,181.43,51.45z M143.44,162.64c3.67,0,6.65,2.98,6.65,6.65c0,3.67-2.98,6.65-6.65,6.65
			c-3.67,0-6.65-2.98-6.65-6.65C136.79,165.62,139.78,162.64,143.44,162.64z M74.13,162.64c3.67,0,6.65,2.98,6.65,6.65
			c0,3.67-2.98,6.65-6.65,6.65c-3.67,0-6.65-2.98-6.65-6.65C67.48,165.62,70.46,162.64,74.13,162.64z M91.36,48.87H70.91
			l21.25-21.25l10.23,10.23L91.36,48.87z M111.16,48.87l21.25-21.25l21.25,21.25H111.16z"/>
	</g>
</g>
</svg>
