<?xml version="1.0" encoding="utf-8"?>
<!-- Generator: Adobe Illustrator 24.0.2, SVG Export Plug-In . SVG Version: 6.00 Build 0)  -->
<svg version="1.1" id="Layer_1" xmlns="http://www.w3.org/2000/svg" xmlns:xlink="http://www.w3.org/1999/xlink" x="0px" y="0px"
	 viewBox="0 0 200 200" style="enable-background:new 0 0 200 200;" xml:space="preserve">
<style type="text/css">
	.st0{fill:#FFFFFF;}
	.st1{fill:#FF7272;}
</style>
<g>
	<g>
		<g>
			<path class="st0" d="M95.5,117.01h-23.4c-3.59,0-6.5,2.91-6.5,6.5c0,3.59,2.91,6.5,6.5,6.5h23.4c3.59,0,6.5-2.91,6.5-6.5
				C102,119.92,99.09,117.01,95.5,117.01z"/>
			<path class="st0" d="M121.5,65.01h-3.25c-3.59,0-6.5,2.91-6.5,6.5c0,3.59,2.91,6.5,6.5,6.5h3.25c3.59,0,6.5-2.91,6.5-6.5
				C128,67.92,125.09,65.01,121.5,65.01z"/>
			<path class="st0" d="M95.5,65.01h-23.4c-3.59,0-6.5,2.91-6.5,6.5c0,3.59,2.91,6.5,6.5,6.5h23.4c3.59,0,6.5-2.91,6.5-6.5
				C102,67.92,99.09,65.01,95.5,65.01z"/>
			<path class="st0" d="M95.5,91.01h-23.4c-3.59,0-6.5,2.91-6.5,6.5s2.91,6.5,6.5,6.5h23.4c3.59,0,6.5-2.91,6.5-6.5
				S99.09,91.01,95.5,91.01z"/>
			<path class="st0" d="M121.5,117.01h-3.25c-3.59,0-6.5,2.91-6.5,6.5c0,3.59,2.91,6.5,6.5,6.5h3.25c3.59,0,6.5-2.91,6.5-6.5
				C128,119.92,125.09,117.01,121.5,117.01z"/>
			<path class="st0" d="M141,103.84c0,3.59,2.91,6.5,6.5,6.5c3.59,0,6.5-2.91,6.5-6.5V65.66h19.5c3.59,0,6.5-2.91,6.5-6.5V35.11
				c0-5.21-2.03-10.11-5.71-13.79c-3.67-3.67-8.55-5.7-13.74-5.71c-0.02,0-0.03,0-0.05,0l-101.4,0c-10.75,0-19.5,8.75-19.5,19.5
				v94.57c-14.34,0-26,11.66-26,26V156c0,14.34,11.66,26,26,26H154c14.34,0,26-11.66,26-26v-0.32c0-14.34-11.66-26-26-26h-6.17
				c-0.05,0-0.11,0.01-0.16,0.01c-0.05,0-0.11-0.01-0.16-0.01c-3.59,0-6.5,2.91-6.5,6.5V169h-88.4V35.11c0-3.58,2.92-6.5,6.5-6.5
				l83.02,0c-0.72,2.03-1.12,4.22-1.12,6.5V103.84z M154,35.11c0-3.58,2.92-6.5,6.5-6.5c1.74,0,3.37,0.68,4.6,1.9
				c1.23,1.23,1.9,2.86,1.9,4.6v17.55h-13V35.11z M39.61,169c-7.17,0-13-5.83-13-13v-0.32c0-7.17,5.83-13,13-13V169z M154,142.68
				c7.17,0,13,5.83,13,13V156c0,7.17-5.83,13-13,13V142.68z"/>
			<path class="st0" d="M121.5,91.01h-3.25c-3.59,0-6.5,2.91-6.5,6.5s2.91,6.5,6.5,6.5h3.25c3.59,0,6.5-2.91,6.5-6.5
				S125.09,91.01,121.5,91.01z"/>
		</g>
	</g>
</g>
</svg>
