<?xml version="1.0" encoding="utf-8"?>
<!-- Generator: Adobe Illustrator 24.0.2, SVG Export Plug-In . SVG Version: 6.00 Build 0)  -->
<svg version="1.1" id="Layer_1" xmlns="http://www.w3.org/2000/svg" xmlns:xlink="http://www.w3.org/1999/xlink" x="0px" y="0px"
	 viewBox="0 0 200 200" style="enable-background:new 0 0 200 200;" xml:space="preserve">
<style type="text/css">
	.st0{fill:#FFFFFF;}
	.st1{fill:#FF7272;}
</style>
<g>
	<g>
		<g>
			<path class="st0" d="M161.36,9.24H34.68c-15.87,0-28.79,12.92-28.79,28.79v0.36c0,15.87,12.92,28.79,28.79,28.79
				c0.12,0,0.24-0.01,0.36-0.02v97.54c0,15.87,12.92,28.79,28.79,28.79h68.74c15.87,0,28.79-12.92,28.79-28.79
				c0-3.98-3.22-7.2-7.2-7.2s-7.2,3.22-7.2,7.2c0,7.94-6.46,14.39-14.39,14.39H63.83c-7.94,0-14.39-6.46-14.39-14.39V23.64h97.53
				v105.08c0,3.98,3.22,7.2,7.2,7.2s7.2-3.22,7.2-7.2V67.18c15.87,0,28.79-12.92,28.79-28.79v-0.36
				C190.15,22.16,177.23,9.24,161.36,9.24z M35.04,52.81c-0.12-0.01-0.24-0.02-0.36-0.02c-7.94,0-14.39-6.46-14.39-14.39v-0.36
				c0-7.94,6.46-14.39,14.39-14.39h0.36V52.81z M175.75,38.39c0,7.94-6.46,14.39-14.39,14.39V23.64c7.94,0,14.39,6.46,14.39,14.39
				V38.39z"/>
		</g>
	</g>
	<g>
		<g>
			<path class="st0" d="M98.06,68.62c-19.45,0-35.27,14.69-35.27,32.75s15.82,32.75,35.27,32.75s35.27-14.69,35.27-32.75
				S117.51,68.62,98.06,68.62z M98.06,119.73c-11.51,0-20.87-8.23-20.87-18.35s9.36-18.35,20.87-18.35s20.87,8.23,20.87,18.35
				S109.57,119.73,98.06,119.73z"/>
		</g>
	</g>
	<g>
		<g>
			<circle class="st0" cx="98.38" cy="158.59" r="7.2"/>
		</g>
	</g>
	<g>
		<g>
			<circle class="st0" cx="98.38" cy="44.15" r="7.2"/>
		</g>
	</g>
</g>
</svg>
