<?xml version="1.0" encoding="utf-8"?>
<!-- Generator: Adobe Illustrator 24.0.2, SVG Export Plug-In . SVG Version: 6.00 Build 0)  -->
<svg version="1.1" id="Layer_1" xmlns="http://www.w3.org/2000/svg" xmlns:xlink="http://www.w3.org/1999/xlink" x="0px" y="0px"
	 viewBox="0 0 200 200" style="enable-background:new 0 0 200 200;" xml:space="preserve">
<g>
	<g>
		<g>
			<path d="M168.84,89.65c-4.73-7.26-11.28-14.14-19.45-20.44c-8.97-6.91-17.88-11.58-23.13-14.04l7.29-18.87
				c0.24-0.62,0.36-1.28,0.36-1.95V33.8c0-1.78-0.87-3.44-2.33-4.45c-1.46-1.01-3.33-1.24-4.99-0.61c-12.18,4.61-24.02,4.61-36.2,0
				c-1.66-0.63-3.53-0.4-4.99,0.61c-1.46,1.01-2.33,2.67-2.33,4.45v0.54c0,0.67,0.12,1.33,0.36,1.95l7.29,18.88
				c-5.22,2.47-14.08,7.13-23.01,14.04c-8.14,6.3-14.65,13.18-19.36,20.44c-6.04,9.33-9.11,19.29-9.11,29.61
				c0,14.15,4.28,26.13,12.39,34.65c7.91,8.32,18.93,12.88,31.87,13.2c0.04,0,0.09,0,0.13,0l48.78,0.01c0.04,0,0.08,0,0.12,0
				c15.75-0.34,28.86-6.82,36.92-18.26c1.72-2.44,1.13-5.82-1.31-7.54c-2.44-1.72-5.82-1.13-7.54,1.31
				c-6.01,8.54-16.04,13.4-28.24,13.67l-48.65-0.01c-20.75-0.54-33.64-14.72-33.64-37.04c0-15,8.1-28.91,24.07-41.34
				c10.52-8.19,21.23-13.05,24.33-14.37h17.41c0.08,0.07,0.16,0.14,0.25,0.22c19.15,16.66,28.87,33.61,28.87,50.36
				c0,2.99,2.42,5.41,5.41,5.41c2.99,0,5.41-2.42,5.41-5.41c0-11.77-3.81-23.53-11.34-35.01c11.66,9.4,22.7,22.86,22.7,40.15
				c0,2.99,2.42,5.41,5.41,5.41c2.99,0,5.41-2.42,5.41-5.41C178,108.95,174.92,98.98,168.84,89.65z M115.6,52.74h-14.22L97.2,41.9
				c7.52,1.46,15.07,1.45,22.59,0L115.6,52.74z"/>
			<path d="M108.49,147.66c2.99,0,5.41-2.42,5.41-5.41v-3.13c7.44-1.04,12.99-7.16,12.99-14.78v-1.33c0-4.09-1.6-7.91-4.5-10.75
				c-2.86-2.81-6.68-4.35-10.74-4.35h-4.96c-2.38,0-4.4-2.11-4.4-4.6v-1.97c0-2.42,1.89-4.25,4.4-4.25h4.69
				c1.38,0,2.8,0.92,2.8,2.47c0,2.99,2.42,5.41,5.41,5.41s5.41-2.42,5.41-5.41c0-6.48-4.79-11.89-11.09-13.05v-3.48
				c0-2.99-2.42-5.41-5.41-5.41s-5.41,2.42-5.41,5.41v3.66c-2.68,0.63-5.13,1.97-7.12,3.91c-2.9,2.83-4.49,6.65-4.49,10.73v1.97
				c0,8.5,6.82,15.42,15.21,15.42h4.96c2.48,0,4.43,1.88,4.43,4.28v1.33c0,2.35-1.9,4.12-4.43,4.12h-8.06
				c-1.33,0-2.67-0.84-2.67-2.43c0-2.99-2.42-5.41-5.41-5.41c-2.99,0-5.41,2.42-5.41,5.41c0,7.26,5.66,12.99,12.99,13.24v2.99
				C103.08,145.24,105.5,147.66,108.49,147.66z"/>
		</g>
	</g>
</g>
</svg>
