<svg xmlns="http://www.w3.org/2000/svg" width="120" height="89.432" viewBox="0 0 120 89.432">
  <g id="Group_12820" data-name="Group 12820" transform="translate(-2456 -19101)">
    <g id="Group_12819" data-name="Group 12819" transform="translate(2456 19101)">
      <path id="Path_8147" data-name="Path 8147" d="M115.869,127.26H10.947a4.131,4.131,0,0,1,0-8.262H111.738V46.09H23.752a15.488,15.488,0,0,0-4.994,30.15L15.791,72a4.131,4.131,0,1,1,6.768-4.739l8.678,12.392a4.132,4.132,0,0,1-1.015,5.754L17.829,94.088a4.131,4.131,0,0,1-4.738-6.767l4.146-2.9a23.75,23.75,0,0,1,6.515-46.589h92.117A4.131,4.131,0,0,1,120,41.959v81.171A4.132,4.132,0,0,1,115.869,127.26Z" transform="translate(0 -37.828)" fill="#fff"/>
      <g id="money_6_" data-name="money (6)" transform="translate(52.121 19.394)">
        <path id="Path_133" data-name="Path 133" d="M104.8,11.482a1.12,1.12,0,0,0-.827-.324H97.823a12.458,12.458,0,0,0-2.3-5.183H103.9a1.106,1.106,0,0,0,1.151-1.151V1.152A1.107,1.107,0,0,0,103.9,0H73.958a1.108,1.108,0,0,0-1.152,1.152V5.939a1.168,1.168,0,0,0,1.152,1.152h5.219q7.594,0,9.646,4.067H73.958a1.108,1.108,0,0,0-1.152,1.152v3.672a1.108,1.108,0,0,0,1.152,1.151h15.37a7.034,7.034,0,0,1-3.69,4.5,16.244,16.244,0,0,1-7.649,1.548H73.958a1.168,1.168,0,0,0-1.152,1.152V28.9a1.076,1.076,0,0,0,.324.792q6.911,7.343,17.925,20.553a1.061,1.061,0,0,0,.9.432h7.019a1.044,1.044,0,0,0,1.044-.648.983.983,0,0,0-.144-1.224Q89.364,35.922,83.352,29.515a18.256,18.256,0,0,0,9.935-3.959,13.457,13.457,0,0,0,4.643-8.423h6.047a1.109,1.109,0,0,0,1.152-1.151V12.31A1.121,1.121,0,0,0,104.8,11.482Z" transform="translate(-72.806)" fill="#fff"/>
      </g>
    </g>
  </g>
</svg>
