<svg xmlns="http://www.w3.org/2000/svg" width="50" height="50" viewBox="0 0 50 50">
  <path id="return" d="M35.547,48.047A1.953,1.953,0,0,1,33.594,50H9.766a7.821,7.821,0,0,1-7.812-7.812V20.508a1.953,1.953,0,1,1,3.906,0v21.68a3.911,3.911,0,0,0,3.906,3.906H33.594A1.953,1.953,0,0,1,35.547,48.047ZM50,5.859v5.859a1.953,1.953,0,0,1-1.953,1.953V27.93a1.953,1.953,0,0,1-3.906,0V13.672H1.953A1.953,1.953,0,0,1,0,11.719V5.859A5.866,5.866,0,0,1,5.859,0H44.141A5.866,5.866,0,0,1,50,5.859ZM3.906,9.766H46.094V5.859a1.955,1.955,0,0,0-1.953-1.953H5.859A1.955,1.955,0,0,0,3.906,5.859ZM29.3,21.484a1.953,1.953,0,1,0,0-3.906H20.508a1.953,1.953,0,0,0,0,3.906Zm12.061,11.23h-10.3L33.5,30.3a1.953,1.953,0,0,0-2.747-2.777L27.129,31.1a4.855,4.855,0,0,0-.01,6.9l3.633,3.613a1.953,1.953,0,1,0,2.755-2.769l-2.241-2.229H41.357a4.736,4.736,0,0,1,.054,9.473,1.953,1.953,0,1,0,0,3.906A8.5,8.5,0,0,0,47.5,47.461a8.662,8.662,0,0,0-6.146-14.746Zm0,0" fill="#fff"/>
</svg>
