<?xml version="1.0" encoding="utf-8"?>
<!-- Generator: Adobe Illustrator 24.0.2, SVG Export Plug-In . SVG Version: 6.00 Build 0)  -->
<svg version="1.1" id="Layer_1" xmlns="http://www.w3.org/2000/svg" xmlns:xlink="http://www.w3.org/1999/xlink" x="0px" y="0px"
	 viewBox="0 0 200 200" style="enable-background:new 0 0 200 200;" xml:space="preserve">
<g>
	<g>
		<g>
			<path d="M68.3,92.79H51.73c-3,0-5.43,2.43-5.43,5.43c0,3,2.43,5.43,5.43,5.43H68.3c3,0,5.43-2.43,5.43-5.43
				S71.31,92.79,68.3,92.79z"/>
			<path d="M68.3,113.98H51.73c-3,0-5.43,2.43-5.43,5.43c0,3,2.43,5.43,5.43,5.43H68.3c3,0,5.43-2.43,5.43-5.43
				C73.74,116.41,71.31,113.98,68.3,113.98z"/>
			<path d="M68.3,134.9H51.73c-3,0-5.43,2.43-5.43,5.43s2.43,5.43,5.43,5.43H68.3c3,0,5.43-2.43,5.43-5.43S71.31,134.9,68.3,134.9z"
				/>
			<path d="M103.62,134.9H87.05c-3,0-5.43,2.43-5.43,5.43s2.43,5.43,5.43,5.43h16.57c3,0,5.43-2.43,5.43-5.43
				S106.62,134.9,103.62,134.9z"/>
			<path d="M103.62,50.13H51.73c-3,0-5.43,2.43-5.43,5.43v21.46c0,3,2.43,5.43,5.43,5.43h51.89c3,0,5.43-2.43,5.43-5.43V55.56
				C109.06,52.56,106.62,50.13,103.62,50.13z M98.19,71.59H57.17V61h41.02L98.19,71.59L98.19,71.59z"/>
			<path d="M157.96,124.03c3,0,5.43-2.43,5.43-5.43v-13.58c0-3-2.43-5.43-5.43-5.43h-27.17V33.83c0-3-2.43-5.43-5.43-5.43H29.72
				c-3,0-5.43,2.43-5.43,5.43l0,111.93c0,11.98,9.75,21.74,21.74,21.74l95.63,0c0.04,0,0.08,0,0.12,0
				c5.76-0.03,11.17-2.29,15.24-6.37c4.11-4.11,6.37-9.56,6.37-15.37c0-3-2.43-5.43-5.43-5.43s-5.43,2.43-5.43,5.43
				c0,2.9-1.13,5.63-3.18,7.69c-2.05,2.05-4.78,3.18-7.68,3.18c0,0,0,0,0,0c-5.99,0-10.87-4.88-10.87-10.87v-35.32h21.74v8.15
				C152.53,121.6,154.96,124.03,157.96,124.03z M46.03,156.63c-5.99,0-10.87-4.88-10.87-10.87l0-106.5h84.77v106.5
				c0,3.96,1.06,7.67,2.92,10.87L46.03,156.63z"/>
			<path d="M103.62,92.79H87.05c-3,0-5.43,2.43-5.43,5.43c0,3,2.43,5.43,5.43,5.43h16.57c3,0,5.43-2.43,5.43-5.43
				S106.62,92.79,103.62,92.79z"/>
			<path d="M103.62,113.98H87.05c-3,0-5.43,2.43-5.43,5.43c0,3,2.43,5.43,5.43,5.43h16.57c3,0,5.43-2.43,5.43-5.43
				C109.06,116.41,106.62,113.98,103.62,113.98z"/>
		</g>
	</g>
</g>
</svg>
