<?xml version="1.0" encoding="utf-8"?>
<!-- Generator: Adobe Illustrator 24.0.2, SVG Export Plug-In . SVG Version: 6.00 Build 0)  -->
<svg version="1.1" id="Layer_1" xmlns="http://www.w3.org/2000/svg" xmlns:xlink="http://www.w3.org/1999/xlink" x="0px" y="0px"
	 viewBox="0 0 200 200" style="enable-background:new 0 0 200 200;" xml:space="preserve">
<g>
	<g>
		<g>
			<path d="M95.12,67.25c-17.75,0-32.2,14.44-32.2,32.2s14.44,32.2,32.2,32.2c3.32,0,6.59-0.5,9.72-1.5
				c2.92-0.93,4.54-4.04,3.62-6.97c-0.92-2.92-4.04-4.54-6.97-3.62c-2.05,0.65-4.2,0.98-6.37,0.98c-11.63,0-21.09-9.46-21.09-21.09
				s9.46-21.09,21.09-21.09s21.09,9.46,21.09,21.09c0,2.02-0.28,4.02-0.85,5.94c-0.86,2.94,0.83,6.03,3.77,6.89
				c2.94,0.86,6.03-0.83,6.89-3.77c0.86-2.93,1.29-5.98,1.29-9.05C127.32,81.7,112.88,67.25,95.12,67.25z"/>
		</g>
	</g>
	<g>
		<g>
			<path d="M149.52,80.02h-2.8c-0.74,0-1.4-0.46-1.69-1.16l-0.05-0.12c-0.3-0.72-0.16-1.52,0.36-2.04l1.98-1.98
				c6.49-6.49,6.49-17.06,0-23.55l-3.93-3.93c-3.15-3.15-7.33-4.88-11.78-4.88c-4.45,0-8.63,1.73-11.78,4.88l-1.98,1.98
				c-0.52,0.52-1.32,0.66-2.04,0.37l-0.1-0.04c-0.72-0.3-1.18-0.96-1.18-1.7v-2.8c0-9.18-7.47-16.65-16.65-16.65h-5.55
				c-9.18,0-16.65,7.47-16.65,16.65v2.8c0,0.74-0.46,1.4-1.17,1.69l-0.11,0.04c-0.72,0.3-1.52,0.16-2.04-0.36l-1.98-1.98
				c-3.15-3.15-7.33-4.88-11.78-4.88s-8.63,1.73-11.78,4.88l-3.93,3.92c-6.49,6.49-6.49,17.06,0,23.55l1.98,1.98
				c0.52,0.52,0.66,1.32,0.36,2.06l-0.03,0.08c-0.3,0.72-0.96,1.18-1.7,1.18h-2.8c-9.18,0-16.65,7.47-16.65,16.65v5.55
				c0,9.18,7.47,16.65,16.65,16.65h2.8c0.74,0,1.4,0.46,1.69,1.16l0.05,0.12c0.3,0.72,0.16,1.52-0.36,2.04l-1.98,1.98
				c-3.15,3.15-4.88,7.33-4.88,11.78c0,4.45,1.73,8.63,4.88,11.78l3.93,3.93c3.15,3.15,7.33,4.88,11.78,4.88
				c4.45,0,8.63-1.73,11.78-4.88l1.98-1.98c0.52-0.52,1.32-0.66,2.04-0.37l0.1,0.04c0.72,0.3,1.18,0.96,1.18,1.7v2.8
				c0,9.18,7.47,16.65,16.65,16.65h5.55c9.18,0,16.65-7.47,16.65-16.65v-2.8c0-0.74,0.46-1.4,1.17-1.69l0.11-0.04
				c0.72-0.3,1.52-0.16,2.04,0.36l1.98,1.98c3.15,3.15,7.33,4.88,11.78,4.88c4.45,0,8.63-1.73,11.78-4.88l3.93-3.93
				c3.15-3.15,4.88-7.33,4.88-11.78c0-4.45-1.73-8.63-4.88-11.78l-1.98-1.98c-0.52-0.52-0.66-1.32-0.36-2.04l0.04-0.1
				c0.3-0.72,0.96-1.18,1.7-1.18h2.8c9.18,0,16.65-7.47,16.65-16.65v-5.55C166.18,87.49,158.71,80.02,149.52,80.02z M155.07,102.22
				c0,3.06-2.49,5.55-5.55,5.55h-2.8c-5.25,0-9.94,3.16-11.96,8.04l-0.04,0.09c-2.03,4.88-0.94,10.44,2.77,14.14l1.98,1.98
				c1.05,1.05,1.63,2.44,1.63,3.93s-0.58,2.88-1.63,3.93l-3.92,3.93c-1.05,1.05-2.44,1.63-3.93,1.63c-1.48,0-2.88-0.58-3.93-1.63
				l-1.98-1.98c-3.71-3.71-9.26-4.79-14.15-2.76l-0.08,0.03c-4.89,2.02-8.04,6.71-8.04,11.96v2.8c0,3.06-2.49,5.55-5.55,5.55h-5.55
				c-3.06,0-5.55-2.49-5.55-5.55v-2.8c0-5.25-3.16-9.94-8.05-11.96l-0.07-0.03c-1.63-0.68-3.34-1.01-5.03-1.01
				c-3.36,0-6.65,1.31-9.12,3.78l-1.98,1.98c-1.05,1.05-2.44,1.63-3.93,1.63c-1.48,0-2.88-0.58-3.93-1.63l-3.93-3.93
				c-1.05-1.05-1.63-2.44-1.63-3.93s0.58-2.88,1.63-3.93l1.98-1.98c3.71-3.71,4.79-9.26,2.77-14.14l-0.04-0.09
				c-2.02-4.89-6.71-8.04-11.96-8.04h-2.8c-3.06,0-5.55-2.49-5.55-5.55v-5.55c0-3.06,2.49-5.55,5.55-5.55h2.8
				c5.25,0,9.94-3.16,11.97-8.06L55.51,83c2.03-4.89,0.94-10.44-2.77-14.15l-1.98-1.98c-2.16-2.16-2.16-5.69,0-7.85l3.92-3.93
				c1.05-1.05,2.44-1.63,3.93-1.63c1.48,0,2.88,0.58,3.93,1.63l1.98,1.98c3.71,3.71,9.27,4.8,14.15,2.76l0.08-0.03
				c4.89-2.02,8.04-6.71,8.04-11.96v-2.8c0-3.06,2.49-5.55,5.55-5.55h5.55c3.06,0,5.55,2.49,5.55,5.55v2.8
				c0,5.25,3.16,9.94,8.05,11.96l0.07,0.03c4.89,2.03,10.44,0.94,14.15-2.77l1.98-1.98c1.05-1.05,2.44-1.63,3.93-1.63
				c1.48,0,2.88,0.58,3.93,1.63l3.93,3.93c2.16,2.16,2.16,5.69,0,7.85l-1.98,1.98c-3.71,3.71-4.8,9.26-2.77,14.13l0.04,0.1
				c2.02,4.89,6.71,8.04,11.96,8.04h2.8c3.06,0,5.55,2.49,5.55,5.55V102.22z"/>
		</g>
	</g>
</g>
</svg>
