<?xml version="1.0" encoding="utf-8"?>
<!-- Generator: Adobe Illustrator 24.0.2, SVG Export Plug-In . SVG Version: 6.00 Build 0)  -->
<svg version="1.1" id="Capa_1" xmlns="http://www.w3.org/2000/svg" xmlns:xlink="http://www.w3.org/1999/xlink" x="0px" y="0px"
	 viewBox="0 0 423.4 423.4" style="enable-background:new 0 0 423.4 423.4;" xml:space="preserve">
<style type="text/css">
	.st0{fill:#FFFFFF;}
</style>
<g>
	<g>
		<g>
			<path class="st0" d="M420.7,145.1c-2.1-2-5-3-7.8-2.6H300.5V92.9c0-49.1-39.8-88.8-88.8-88.8s-88.8,39.8-88.8,88.8v49.6H10.6
				c-3.1,0-6.3,0-7.8,2.6c-2.1,2-3.1,5-2.6,7.8l39.2,214.2c5.5,29.9,31.3,51.7,61.6,52.2h221.5c30.5-0.7,56.2-22.8,61.6-52.8
				l39.2-213.7C423.8,150.1,422.8,147.1,420.7,145.1z M143.8,92.9c0-37.5,30.4-67.9,67.9-67.9s67.9,30.4,67.9,67.9v49.6H143.8V92.9z
				 M363.2,364c-3.5,19.8-20.6,34.3-40.8,34.5H100.9c-20.1-0.2-37.2-14.7-40.8-34.5L23.1,163.4h377.2L363.2,364z"/>
			<path class="st0" d="M290.1,265.3c5.8,0,10.4-4.7,10.4-10.4v-31.3c0-5.8-4.7-10.4-10.4-10.4s-10.4,4.7-10.4,10.4v31.3
				C279.6,260.6,284.3,265.3,290.1,265.3z"/>
			<path class="st0" d="M133.3,265.3c5.8,0,10.4-4.7,10.4-10.4v-31.3c0-5.8-4.7-10.4-10.4-10.4c-5.8,0-10.4,4.7-10.4,10.4v31.3
				C122.9,260.6,127.6,265.3,133.3,265.3z"/>
		</g>
	</g>
</g>
</svg>
