<svg xmlns="http://www.w3.org/2000/svg" width="120" height="120" viewBox="0 0 120 120">
  <g id="wallet" transform="translate(0 0)">
    <g id="Group_12135" data-name="Group 12135" transform="translate(0 0)">
      <path id="Path_8019" data-name="Path 8019" d="M94.922,60.235a14.062,14.062,0,0,0,0,28.125h19.922c.079,0,.157-.008.236-.012s.154.012.233.012A4.687,4.687,0,0,0,120,83.672v-36.8a18.733,18.733,0,0,0-7.771-15.185L96.282,5.529a4.688,4.688,0,0,0-6.473-1.544l-11.76,7.293L72.746,2.3A4.688,4.688,0,0,0,66.276.682L21.119,28.125H14.062a4.693,4.693,0,0,1-4.686-4.57,4.693,4.693,0,0,1,4.686-4.57h8.672a4.687,4.687,0,1,0,0-9.375H14.062a14.087,14.087,0,0,0-13.68,10.8A4.667,4.667,0,0,0,0,22.266V101.25A18.771,18.771,0,0,0,18.75,120h82.5a18.727,18.727,0,0,0,17.789-12.813,4.687,4.687,0,0,0-8.893-2.967,9.364,9.364,0,0,1-8.9,6.405H18.75a9.386,9.386,0,0,1-9.375-9.375V36.7a14,14,0,0,0,4.687.8H101.25a9.386,9.386,0,0,1,9.375,9.375v13.36Zm15.7,18.75h-15.7a4.687,4.687,0,0,1,0-9.375h15.7ZM39.171,28.126,67.089,11.159l4.991,8.447a4.7,4.7,0,0,0,.342.678,4.752,4.752,0,0,0,.333.465l4.359,7.378Zm48.834,0L82.82,19.351l7.916-4.909,8.341,13.683Z" transform="translate(0 0)" fill="#fff"/>
    </g>
  </g>
</svg>
