<?xml version="1.0" encoding="utf-8"?>
<!-- Generator: Adobe Illustrator 24.0.2, SVG Export Plug-In . SVG Version: 6.00 Build 0)  -->
<svg version="1.1" id="Layer_1" xmlns="http://www.w3.org/2000/svg" xmlns:xlink="http://www.w3.org/1999/xlink" x="0px" y="0px"
	 viewBox="0 0 200 200" style="enable-background:new 0 0 200 200;" xml:space="preserve">
<style type="text/css">
	.st0{fill:#D89B2B;}
	.st1{fill:#013443;}
	.st2{fill:#58595B;}
	.st3{fill:#FFFFFF;}
	.st4{fill-rule:evenodd;clip-rule:evenodd;fill:#D6B46D;}
	.st5{fill-rule:evenodd;clip-rule:evenodd;fill:#C5C5C4;}
	.st6{fill:#D3A23E;}
</style>
<g id="Group_470" transform="translate(-758.276 -1462.143)">
	<path id="Path_300" class="st0" d="M887.94,1546.39h33.84l23.99-24.09v42.41l-19.72,18.79h-36.87l-13.15-8.95v-14.87
		L887.94,1546.39z"/>
	<g id="wallet_2_" transform="translate(1052 1465)">
		<g id="Group_465" transform="translate(0 0)">
			<g id="Group_464" transform="translate(0 0)">
				<path id="Path_294" class="st1" d="M-120.09,16.87h-126.78c-9.58,0.04-17.32,7.82-17.32,17.4v0.21h-2.35
					c-9.56-0.01-17.32,7.72-17.36,17.28v96.16c0.03,9.58,7.78,17.35,17.36,17.4h126.78c9.58-0.04,17.32-7.82,17.32-17.4v-0.21h2.35
					c9.56,0.01,17.32-7.72,17.36-17.28V34.27C-102.74,24.69-110.5,16.91-120.09,16.87z M-139.76,156.94h-126.78
					c-4.95-0.05-8.94-4.07-8.98-9.02V51.76c0.05-4.92,4.05-8.89,8.98-8.89h126.78c4.92-0.02,8.92,3.96,8.93,8.88c0,0,0,0.01,0,0.01
					v23.99c-0.73,0.16-1.48,0.25-2.22,0.25h-24.2c-13.19,0.01-23.88,10.7-23.87,23.89c0.01,13.18,10.69,23.87,23.87,23.87h24.16
					c0.75-0.04,1.51-0.13,2.22-0.21l0.04,24.36C-130.82,152.87-134.81,156.9-139.76,156.94z M-111.11,130.44
					c-0.05,4.92-4.05,8.89-8.98,8.89h-2.35v-18.79c1.81-1.23,3.43-2.72,4.82-4.41l6.5-8.39L-111.11,130.44z M-124.23,111.06
					c-2.12,2.72-5.36,4.33-8.81,4.36h-24.2c-8.57-0.09-15.45-7.1-15.36-15.67c0.09-8.45,6.91-15.28,15.36-15.36h24.16
					c2.89,0.01,5.74-0.64,8.35-1.89c2.78-1.32,5.21-3.27,7.09-5.7l6.5-8.39l0.04,25.62L-124.23,111.06z M-111.11,54.69l-11.32,14.59
					V51.76c-0.01-9.55-7.75-17.28-17.3-17.28c-0.01,0-0.01,0-0.02,0H-255.8v-0.21c0-4.95,3.98-8.97,8.93-9.02h126.78
					c4.95,0.05,8.94,4.07,8.98,9.02L-111.11,54.69L-111.11,54.69z"/>
			</g>
		</g>
		<g id="Group_467" transform="translate(77.346 50.072)">
			<g id="Group_466" transform="translate(0 0)">
				<path id="Path_295" class="st1" d="M-225.2,45.64h-10.06c-2.32,0-4.19,1.88-4.19,4.19s1.88,4.19,4.19,4.19h10.06
					c2.32,0,4.19-1.88,4.19-4.19S-222.88,45.64-225.2,45.64z"/>
			</g>
		</g>
	</g>
</g>
</svg>
